<svg width="175" height="44" viewBox="0 0 175 44" fill="none" xmlns="http://www.w3.org/2000/svg">
<rect width="175" height="44" fill="#EEEEEE"/>
<path d="M42.736 28.192C41.8507 28.192 41.0347 28.0533 40.288 27.776C39.552 27.488 38.9067 27.0827 38.352 26.56C37.808 26.0373 37.3813 25.424 37.072 24.72C36.7733 24.016 36.624 23.2427 36.624 22.4C36.624 21.5573 36.7733 20.784 37.072 20.08C37.3813 19.376 37.8133 18.7627 38.368 18.24C38.9227 17.7173 39.5733 17.3173 40.32 17.04C41.0667 16.752 41.888 16.608 42.784 16.608C43.776 16.608 44.6667 16.7733 45.456 17.104C46.256 17.4347 46.928 17.9147 47.472 18.544L45.808 20.08C45.4027 19.6533 44.96 19.3387 44.48 19.136C44 18.9227 43.4773 18.816 42.912 18.816C42.368 18.816 41.872 18.9013 41.424 19.072C40.976 19.2427 40.5867 19.488 40.256 19.808C39.936 20.128 39.6853 20.5067 39.504 20.944C39.3333 21.3813 39.248 21.8667 39.248 22.4C39.248 22.9227 39.3333 23.4027 39.504 23.84C39.6853 24.2773 39.936 24.6613 40.256 24.992C40.5867 25.312 40.9707 25.5573 41.408 25.728C41.856 25.8987 42.3467 25.984 42.88 25.984C43.392 25.984 43.888 25.904 44.368 25.744C44.8587 25.5733 45.3333 25.2907 45.792 24.896L47.264 26.768C46.656 27.2267 45.9467 27.5787 45.136 27.824C44.336 28.0693 43.536 28.192 42.736 28.192ZM44.896 26.432V22.224H47.264V26.768L44.896 26.432ZM53.6078 28.128C52.6264 28.128 51.7624 27.936 51.0158 27.552C50.2798 27.168 49.7091 26.6453 49.3038 25.984C48.8984 25.312 48.6958 24.5493 48.6958 23.696C48.6958 22.832 48.8931 22.0693 49.2878 21.408C49.6931 20.736 50.2424 20.2133 50.9358 19.84C51.6291 19.456 52.4131 19.264 53.2878 19.264C54.1304 19.264 54.8878 19.4453 55.5598 19.808C56.2424 20.16 56.7811 20.672 57.1758 21.344C57.5704 22.0053 57.7678 22.8 57.7678 23.728C57.7678 23.824 57.7624 23.936 57.7518 24.064C57.7411 24.1813 57.7304 24.2933 57.7198 24.4H50.7278V22.944H56.4078L55.4478 23.376C55.4478 22.928 55.3571 22.5387 55.1758 22.208C54.9944 21.8773 54.7438 21.6213 54.4238 21.44C54.1038 21.248 53.7304 21.152 53.3038 21.152C52.8771 21.152 52.4984 21.248 52.1678 21.44C51.8478 21.6213 51.5971 21.8827 51.4158 22.224C51.2344 22.5547 51.1438 22.9493 51.1438 23.408V23.792C51.1438 24.2613 51.2451 24.6773 51.4478 25.04C51.6611 25.392 51.9544 25.664 52.3278 25.856C52.7118 26.0373 53.1598 26.128 53.6718 26.128C54.1304 26.128 54.5304 26.0587 54.8718 25.92C55.2238 25.7813 55.5438 25.5733 55.8318 25.296L57.1598 26.736C56.7651 27.184 56.2691 27.5307 55.6718 27.776C55.0744 28.0107 54.3864 28.128 53.6078 28.128ZM62.7895 28.128C61.7762 28.128 60.9868 27.872 60.4215 27.36C59.8562 26.8373 59.5735 26.064 59.5735 25.04V17.488H62.0695V25.008C62.0695 25.3707 62.1655 25.6533 62.3575 25.856C62.5495 26.048 62.8108 26.144 63.1415 26.144C63.5362 26.144 63.8722 26.0373 64.1495 25.824L64.8215 27.584C64.5655 27.7653 64.2562 27.904 63.8935 28C63.5415 28.0853 63.1735 28.128 62.7895 28.128ZM58.2455 21.504V19.584H64.2135V21.504H58.2455ZM76.0339 28.192C75.1592 28.192 74.3432 28.048 73.5859 27.76C72.8392 27.472 72.1885 27.0667 71.6339 26.544C71.0899 26.0213 70.6632 25.408 70.3539 24.704C70.0552 24 69.9059 23.232 69.9059 22.4C69.9059 21.568 70.0552 20.8 70.3539 20.096C70.6632 19.392 71.0952 18.7787 71.6499 18.256C72.2045 17.7333 72.8552 17.328 73.6019 17.04C74.3485 16.752 75.1592 16.608 76.0339 16.608C76.9192 16.608 77.7299 16.752 78.4659 17.04C79.2125 17.328 79.8579 17.7333 80.4019 18.256C80.9565 18.768 81.3885 19.376 81.6979 20.08C82.0072 20.784 82.1619 21.5573 82.1619 22.4C82.1619 23.232 82.0072 24.0053 81.6979 24.72C81.3885 25.424 80.9565 26.0373 80.4019 26.56C79.8579 27.072 79.2125 27.472 78.4659 27.76C77.7299 28.048 76.9192 28.192 76.0339 28.192ZM79.6979 30.576C79.2605 30.576 78.8445 30.528 78.4499 30.432C78.0659 30.336 77.6819 30.1813 77.2979 29.968C76.9245 29.7547 76.5299 29.4667 76.1139 29.104C75.7085 28.7413 75.2659 28.2933 74.7859 27.76L77.5059 27.072C77.7939 27.4667 78.0605 27.7813 78.3059 28.016C78.5512 28.2507 78.7859 28.416 79.0099 28.512C79.2445 28.608 79.4899 28.656 79.7459 28.656C80.4285 28.656 81.0365 28.3787 81.5699 27.824L82.7219 29.2C81.9645 30.1173 80.9565 30.576 79.6979 30.576ZM76.0339 25.984C76.5352 25.984 76.9939 25.8987 77.4099 25.728C77.8365 25.5573 78.2099 25.312 78.5299 24.992C78.8499 24.672 79.0952 24.2933 79.2659 23.856C79.4472 23.408 79.5379 22.9227 79.5379 22.4C79.5379 21.8667 79.4472 21.3813 79.2659 20.944C79.0952 20.5067 78.8499 20.128 78.5299 19.808C78.2099 19.488 77.8365 19.2427 77.4099 19.072C76.9939 18.9013 76.5352 18.816 76.0339 18.816C75.5325 18.816 75.0685 18.9013 74.6419 19.072C74.2152 19.2427 73.8419 19.488 73.5219 19.808C73.2125 20.128 72.9672 20.5067 72.7859 20.944C72.6152 21.3813 72.5299 21.8667 72.5299 22.4C72.5299 22.9227 72.6152 23.408 72.7859 23.856C72.9672 24.2933 73.2125 24.672 73.5219 24.992C73.8419 25.312 74.2152 25.5573 74.6419 25.728C75.0685 25.8987 75.5325 25.984 76.0339 25.984ZM87.4059 28.128C86.6912 28.128 86.0512 27.9893 85.4859 27.712C84.9312 27.4347 84.4992 27.0133 84.1899 26.448C83.8805 25.872 83.7259 25.1413 83.7259 24.256V19.392H86.2219V23.888C86.2219 24.6027 86.3712 25.1307 86.6699 25.472C86.9792 25.8027 87.4112 25.968 87.9659 25.968C88.3499 25.968 88.6912 25.888 88.9899 25.728C89.2885 25.5573 89.5232 25.3013 89.6939 24.96C89.8645 24.608 89.9499 24.1707 89.9499 23.648V19.392H92.4459V28H90.0779V25.632L90.5099 26.32C90.2219 26.9173 89.7952 27.3707 89.2299 27.68C88.6752 27.9787 88.0672 28.128 87.4059 28.128ZM98.6943 28.128C97.7769 28.128 96.9609 27.936 96.2463 27.552C95.5423 27.168 94.9823 26.6453 94.5663 25.984C94.1609 25.312 93.9583 24.5493 93.9583 23.696C93.9583 22.832 94.1609 22.0693 94.5663 21.408C94.9823 20.736 95.5423 20.2133 96.2463 19.84C96.9609 19.456 97.7769 19.264 98.6943 19.264C99.6009 19.264 100.412 19.456 101.126 19.84C101.841 20.2133 102.401 20.7307 102.806 21.392C103.212 22.0533 103.414 22.8213 103.414 23.696C103.414 24.5493 103.212 25.312 102.806 25.984C102.401 26.6453 101.841 27.168 101.126 27.552C100.412 27.936 99.6009 28.128 98.6943 28.128ZM98.6943 26.08C99.1103 26.08 99.4836 25.984 99.8143 25.792C100.145 25.6 100.406 25.328 100.598 24.976C100.79 24.6133 100.886 24.1867 100.886 23.696C100.886 23.1947 100.79 22.768 100.598 22.416C100.406 22.064 100.145 21.792 99.8143 21.6C99.4836 21.408 99.1103 21.312 98.6943 21.312C98.2783 21.312 97.9049 21.408 97.5743 21.6C97.2436 21.792 96.9769 22.064 96.7743 22.416C96.5823 22.768 96.4863 23.1947 96.4863 23.696C96.4863 24.1867 96.5823 24.6133 96.7743 24.976C96.9769 25.328 97.2436 25.6 97.5743 25.792C97.9049 25.984 98.2783 26.08 98.6943 26.08ZM108.443 28.128C107.429 28.128 106.64 27.872 106.075 27.36C105.509 26.8373 105.227 26.064 105.227 25.04V17.488H107.723V25.008C107.723 25.3707 107.819 25.6533 108.011 25.856C108.203 26.048 108.464 26.144 108.795 26.144C109.189 26.144 109.525 26.0373 109.803 25.824L110.475 27.584C110.219 27.7653 109.909 27.904 109.547 28C109.195 28.0853 108.827 28.128 108.443 28.128ZM103.899 21.504V19.584H109.867V21.504H103.899ZM115.722 28.128C114.741 28.128 113.877 27.936 113.13 27.552C112.394 27.168 111.823 26.6453 111.418 25.984C111.013 25.312 110.81 24.5493 110.81 23.696C110.81 22.832 111.007 22.0693 111.402 21.408C111.807 20.736 112.357 20.2133 113.05 19.84C113.743 19.456 114.527 19.264 115.402 19.264C116.245 19.264 117.002 19.4453 117.674 19.808C118.357 20.16 118.895 20.672 119.29 21.344C119.685 22.0053 119.882 22.8 119.882 23.728C119.882 23.824 119.877 23.936 119.866 24.064C119.855 24.1813 119.845 24.2933 119.834 24.4H112.842V22.944H118.522L117.562 23.376C117.562 22.928 117.471 22.5387 117.29 22.208C117.109 21.8773 116.858 21.6213 116.538 21.44C116.218 21.248 115.845 21.152 115.418 21.152C114.991 21.152 114.613 21.248 114.282 21.44C113.962 21.6213 113.711 21.8827 113.53 22.224C113.349 22.5547 113.258 22.9493 113.258 23.408V23.792C113.258 24.2613 113.359 24.6773 113.562 25.04C113.775 25.392 114.069 25.664 114.442 25.856C114.826 26.0373 115.274 26.128 115.786 26.128C116.245 26.128 116.645 26.0587 116.986 25.92C117.338 25.7813 117.658 25.5733 117.946 25.296L119.274 26.736C118.879 27.184 118.383 27.5307 117.786 27.776C117.189 28.0107 116.501 28.128 115.722 28.128Z" fill="#161616"/>
<path d="M134.46 26.7563L138.75 22.5693C139.083 22.2427 139.083 21.7152 138.75 21.3886L134.46 17.2016C134.139 16.9328 133.664 16.9328 133.343 17.2016C132.984 17.5022 132.942 18.0314 133.25 18.3823L136.931 21.9748L133.25 25.5756C132.917 25.9022 132.917 26.4297 133.25 26.7563C133.584 27.0812 134.125 27.0812 134.46 26.7563Z" fill="#161616"/>
</svg>
