<svg width="155" height="470" viewBox="0 0 155 470" fill="none" xmlns="http://www.w3.org/2000/svg">
<path d="M4.96223 466.785C4.96223 468.164 3.85953 469.267 2.48112 469.267C1.1027 469.267 2.1474e-07 468.164 1.38047e-07 466.785C6.13534e-08 465.407 1.1027 464.304 2.48112 464.304C3.85953 464.304 4.96223 465.407 4.96223 466.785Z" fill="#FEFEFE"/>
<path d="M39.9741 469.267C41.3443 469.267 42.4553 468.156 42.4553 466.785C42.4553 465.415 41.3443 464.304 39.9741 464.304C38.6038 464.304 37.493 465.415 37.493 466.785C37.493 468.156 38.6038 469.267 39.9741 469.267Z" fill="#FEFEFE"/>
<path d="M77.4372 469.267C78.8074 469.267 79.9182 468.156 79.9182 466.785C79.9182 465.415 78.8074 464.304 77.4372 464.304C76.067 464.304 74.9562 465.415 74.9562 466.785C74.9562 468.156 76.067 469.267 77.4372 469.267Z" fill="#FEFEFE"/>
<path d="M114.935 469.267C116.305 469.267 117.416 468.156 117.416 466.785C117.416 465.415 116.305 464.304 114.935 464.304C113.565 464.304 112.454 465.415 112.454 466.785C112.454 468.156 113.565 469.267 114.935 469.267Z" fill="#FEFEFE"/>
<path d="M154.906 466.785C154.906 468.164 153.803 469.267 152.424 469.267C151.046 469.267 149.943 468.164 149.943 466.785C149.943 465.407 151.046 464.304 152.424 464.304C153.778 464.304 154.906 465.407 154.906 466.785Z" fill="#FEFEFE"/>
<path d="M23.7112 437.823C23.7112 439.201 22.6085 440.304 21.2302 440.304C19.8518 440.304 18.7491 439.201 18.7491 437.823C18.7491 436.444 19.8518 435.341 21.2302 435.341C22.6085 435.341 23.7112 436.444 23.7112 437.823Z" fill="#FEFEFE"/>
<path d="M58.693 440.304C60.0632 440.304 61.174 439.193 61.174 437.823C61.174 436.452 60.0632 435.341 58.693 435.341C57.3227 435.341 56.2119 436.452 56.2119 437.823C56.2119 439.193 57.3227 440.304 58.693 440.304Z" fill="#FEFEFE"/>
<path d="M96.1874 440.304C97.5576 440.304 98.6684 439.193 98.6684 437.823C98.6684 436.452 97.5576 435.341 96.1874 435.341C94.8171 435.341 93.7062 436.452 93.7062 437.823C93.7062 439.193 94.8171 440.304 96.1874 440.304Z" fill="#FEFEFE"/>
<path d="M136.157 437.823C136.157 439.201 135.054 440.304 133.675 440.304C132.297 440.304 131.194 439.201 131.194 437.823C131.194 436.444 132.297 435.341 133.675 435.341C135.029 435.341 136.157 436.444 136.157 437.823Z" fill="#FEFEFE"/>
<path d="M4.96223 408.86C4.96223 410.238 3.85953 411.341 2.48112 411.341C1.1027 411.341 2.14743e-07 410.238 1.38048e-07 408.86C6.13541e-08 407.481 1.1027 406.379 2.48112 406.379C3.85953 406.379 4.96223 407.481 4.96223 408.86Z" fill="#FEFEFE"/>
<path d="M39.9741 411.341C41.3443 411.341 42.4553 410.23 42.4553 408.86C42.4553 407.49 41.3443 406.379 39.9741 406.379C38.6038 406.379 37.493 407.49 37.493 408.86C37.493 410.23 38.6038 411.341 39.9741 411.341Z" fill="#FEFEFE"/>
<path d="M77.4372 411.341C78.8074 411.341 79.9182 410.23 79.9182 408.86C79.9182 407.49 78.8074 406.379 77.4372 406.379C76.067 406.379 74.9562 407.49 74.9562 408.86C74.9562 410.23 76.067 411.341 77.4372 411.341Z" fill="#FEFEFE"/>
<path d="M114.935 411.341C116.305 411.341 117.416 410.23 117.416 408.86C117.416 407.49 116.305 406.379 114.935 406.379C113.565 406.379 112.454 407.49 112.454 408.86C112.454 410.23 113.565 411.341 114.935 411.341Z" fill="#FEFEFE"/>
<path d="M154.906 408.86C154.906 410.238 153.803 411.341 152.424 411.341C151.046 411.341 149.943 410.238 149.943 408.86C149.943 407.481 151.046 406.379 152.424 406.379C153.778 406.379 154.906 407.481 154.906 408.86Z" fill="#FEFEFE"/>
<path d="M23.7112 379.897C23.7112 381.276 22.6085 382.379 21.2302 382.379C19.8518 382.379 18.7491 381.276 18.7491 379.897C18.7491 378.519 19.8518 377.416 21.2302 377.416C22.6085 377.391 23.7112 378.519 23.7112 379.897Z" fill="#FEFEFE"/>
<path d="M58.693 382.378C60.0632 382.378 61.174 381.267 61.174 379.897C61.174 378.527 60.0632 377.416 58.693 377.416C57.3227 377.416 56.2119 378.527 56.2119 379.897C56.2119 381.267 57.3227 382.378 58.693 382.378Z" fill="#FEFEFE"/>
<path d="M96.1874 382.378C97.5576 382.378 98.6684 381.267 98.6684 379.897C98.6684 378.527 97.5576 377.416 96.1874 377.416C94.8171 377.416 93.7062 378.527 93.7062 379.897C93.7062 381.267 94.8171 382.378 96.1874 382.378Z" fill="#FEFEFE"/>
<path d="M136.157 379.897C136.157 381.276 135.054 382.379 133.675 382.379C132.297 382.379 131.194 381.276 131.194 379.897C131.194 378.519 132.297 377.416 133.675 377.416C135.029 377.391 136.157 378.519 136.157 379.897Z" fill="#FEFEFE"/>
<path d="M4.96223 350.934C4.96223 352.313 3.85953 353.416 2.48112 353.416C1.1027 353.416 2.14767e-07 352.313 1.38072e-07 350.934C6.13773e-08 349.556 1.1027 348.453 2.48112 348.453C3.85953 348.428 4.96223 349.556 4.96223 350.934Z" fill="#FEFEFE"/>
<path d="M39.9741 353.415C41.3443 353.415 42.4553 352.304 42.4553 350.934C42.4553 349.563 41.3443 348.453 39.9741 348.453C38.6038 348.453 37.493 349.563 37.493 350.934C37.493 352.304 38.6038 353.415 39.9741 353.415Z" fill="#FEFEFE"/>
<path d="M77.4372 353.415C78.8074 353.415 79.9182 352.304 79.9182 350.934C79.9182 349.563 78.8074 348.453 77.4372 348.453C76.067 348.453 74.9562 349.563 74.9562 350.934C74.9562 352.304 76.067 353.415 77.4372 353.415Z" fill="#FEFEFE"/>
<path d="M114.935 353.415C116.305 353.415 117.416 352.304 117.416 350.934C117.416 349.563 116.305 348.453 114.935 348.453C113.565 348.453 112.454 349.563 112.454 350.934C112.454 352.304 113.565 353.415 114.935 353.415Z" fill="#FEFEFE"/>
<path d="M154.906 350.934C154.906 352.313 153.803 353.416 152.424 353.416C151.046 353.416 149.943 352.313 149.943 350.934C149.943 349.556 151.046 348.453 152.424 348.453C153.778 348.428 154.906 349.556 154.906 350.934Z" fill="#FEFEFE"/>
<path d="M23.7112 321.971C23.7112 323.35 22.6085 324.453 21.2302 324.453C19.8518 324.453 18.7491 323.35 18.7491 321.971C18.7491 320.593 19.8518 319.49 21.2302 319.49C22.6085 319.49 23.7112 320.618 23.7112 321.971Z" fill="#FEFEFE"/>
<path d="M58.693 324.453C60.0632 324.453 61.174 323.342 61.174 321.971C61.174 320.601 60.0632 319.49 58.693 319.49C57.3227 319.49 56.2119 320.601 56.2119 321.971C56.2119 323.342 57.3227 324.453 58.693 324.453Z" fill="#FEFEFE"/>
<path d="M96.1874 324.453C97.5576 324.453 98.6684 323.342 98.6684 321.971C98.6684 320.601 97.5576 319.49 96.1874 319.49C94.8171 319.49 93.7062 320.601 93.7062 321.971C93.7062 323.342 94.8171 324.453 96.1874 324.453Z" fill="#FEFEFE"/>
<path d="M136.157 321.971C136.157 323.35 135.054 324.453 133.675 324.453C132.297 324.453 131.194 323.35 131.194 321.971C131.194 320.593 132.297 319.49 133.675 319.49C135.029 319.49 136.157 320.618 136.157 321.971Z" fill="#FEFEFE"/>
<path d="M4.96223 293.009C4.96223 294.387 3.85953 295.49 2.48112 295.49C1.1027 295.49 2.1474e-07 294.387 1.38047e-07 293.009C6.13534e-08 291.63 1.1027 290.527 2.48112 290.527C3.85953 290.527 4.96223 291.63 4.96223 293.009Z" fill="#FEFEFE"/>
<path d="M39.9741 295.49C41.3443 295.49 42.4553 294.379 42.4553 293.009C42.4553 291.638 41.3443 290.527 39.9741 290.527C38.6038 290.527 37.493 291.638 37.493 293.009C37.493 294.379 38.6038 295.49 39.9741 295.49Z" fill="#FEFEFE"/>
<path d="M77.4372 295.49C78.8074 295.49 79.9182 294.379 79.9182 293.009C79.9182 291.638 78.8074 290.527 77.4372 290.527C76.067 290.527 74.9562 291.638 74.9562 293.009C74.9562 294.379 76.067 295.49 77.4372 295.49Z" fill="#FEFEFE"/>
<path d="M114.935 295.49C116.305 295.49 117.416 294.379 117.416 293.009C117.416 291.638 116.305 290.527 114.935 290.527C113.565 290.527 112.454 291.638 112.454 293.009C112.454 294.379 113.565 295.49 114.935 295.49Z" fill="#FEFEFE"/>
<path d="M154.906 293.009C154.906 294.387 153.803 295.49 152.424 295.49C151.046 295.49 149.943 294.387 149.943 293.009C149.943 291.63 151.046 290.527 152.424 290.527C153.778 290.527 154.906 291.63 154.906 293.009Z" fill="#FEFEFE"/>
<path d="M23.7112 264.046C23.7112 265.425 22.6085 266.527 21.2302 266.527C19.8518 266.527 18.7491 265.425 18.7491 264.046C18.7491 262.667 19.8518 261.565 21.2302 261.565C22.6085 261.565 23.7112 262.667 23.7112 264.046Z" fill="#FEFEFE"/>
<path d="M58.693 266.527C60.0632 266.527 61.174 265.416 61.174 264.046C61.174 262.676 60.0632 261.565 58.693 261.565C57.3227 261.565 56.2119 262.676 56.2119 264.046C56.2119 265.416 57.3227 266.527 58.693 266.527Z" fill="#FEFEFE"/>
<path d="M96.1874 266.527C97.5576 266.527 98.6684 265.416 98.6684 264.046C98.6684 262.676 97.5576 261.565 96.1874 261.565C94.8171 261.565 93.7062 262.676 93.7062 264.046C93.7062 265.416 94.8171 266.527 96.1874 266.527Z" fill="#FEFEFE"/>
<path d="M136.157 264.046C136.157 265.425 135.054 266.527 133.675 266.527C132.297 266.527 131.194 265.425 131.194 264.046C131.194 262.667 132.297 261.565 133.675 261.565C135.029 261.565 136.157 262.667 136.157 264.046Z" fill="#FEFEFE"/>
<path d="M4.96223 235.083C4.96223 236.462 3.85953 237.565 2.48112 237.565C1.1027 237.565 2.14743e-07 236.462 1.38048e-07 235.083C6.13541e-08 233.705 1.1027 232.602 2.48112 232.602C3.85953 232.602 4.96223 233.705 4.96223 235.083Z" fill="#FEFEFE"/>
<path d="M39.9741 237.565C41.3443 237.565 42.4553 236.454 42.4553 235.083C42.4553 233.713 41.3443 232.602 39.9741 232.602C38.6038 232.602 37.493 233.713 37.493 235.083C37.493 236.454 38.6038 237.565 39.9741 237.565Z" fill="#FEFEFE"/>
<path d="M77.4372 237.565C78.8074 237.565 79.9182 236.454 79.9182 235.083C79.9182 233.713 78.8074 232.602 77.4372 232.602C76.067 232.602 74.9562 233.713 74.9562 235.083C74.9562 236.454 76.067 237.565 77.4372 237.565Z" fill="#FEFEFE"/>
<path d="M114.935 237.565C116.305 237.565 117.416 236.454 117.416 235.083C117.416 233.713 116.305 232.602 114.935 232.602C113.565 232.602 112.454 233.713 112.454 235.083C112.454 236.454 113.565 237.565 114.935 237.565Z" fill="#FEFEFE"/>
<path d="M154.906 235.083C154.906 236.462 153.803 237.565 152.424 237.565C151.046 237.565 149.943 236.462 149.943 235.083C149.943 233.705 151.046 232.602 152.424 232.602C153.778 232.602 154.906 233.705 154.906 235.083Z" fill="#FEFEFE"/>
<path d="M23.7112 206.121C23.7112 207.499 22.6085 208.602 21.2302 208.602C19.8518 208.602 18.7491 207.499 18.7491 206.121C18.7491 204.742 19.8518 203.639 21.2302 203.639C22.6085 203.614 23.7112 204.742 23.7112 206.121Z" fill="#FEFEFE"/>
<path d="M58.693 208.602C60.0632 208.602 61.174 207.491 61.174 206.12C61.174 204.75 60.0632 203.639 58.693 203.639C57.3227 203.639 56.2119 204.75 56.2119 206.12C56.2119 207.491 57.3227 208.602 58.693 208.602Z" fill="#FEFEFE"/>
<path d="M96.1874 208.602C97.5576 208.602 98.6684 207.491 98.6684 206.12C98.6684 204.75 97.5576 203.639 96.1874 203.639C94.8171 203.639 93.7062 204.75 93.7062 206.12C93.7062 207.491 94.8171 208.602 96.1874 208.602Z" fill="#FEFEFE"/>
<path d="M136.157 206.121C136.157 207.499 135.054 208.602 133.675 208.602C132.297 208.602 131.194 207.499 131.194 206.121C131.194 204.742 132.297 203.639 133.675 203.639C135.029 203.614 136.157 204.742 136.157 206.121Z" fill="#FEFEFE"/>
<path d="M4.96223 177.158C4.96223 178.536 3.85953 179.639 2.48112 179.639C1.1027 179.639 2.14767e-07 178.536 1.38072e-07 177.158C6.13773e-08 175.779 1.1027 174.676 2.48112 174.676C3.85953 174.651 4.96223 175.779 4.96223 177.158Z" fill="#FEFEFE"/>
<path d="M39.9741 179.639C41.3443 179.639 42.4553 178.528 42.4553 177.157C42.4553 175.787 41.3443 174.676 39.9741 174.676C38.6038 174.676 37.493 175.787 37.493 177.157C37.493 178.528 38.6038 179.639 39.9741 179.639Z" fill="#FEFEFE"/>
<path d="M77.4372 179.639C78.8074 179.639 79.9182 178.528 79.9182 177.157C79.9182 175.787 78.8074 174.676 77.4372 174.676C76.067 174.676 74.9562 175.787 74.9562 177.157C74.9562 178.528 76.067 179.639 77.4372 179.639Z" fill="#FEFEFE"/>
<path d="M114.935 179.639C116.305 179.639 117.416 178.528 117.416 177.157C117.416 175.787 116.305 174.676 114.935 174.676C113.565 174.676 112.454 175.787 112.454 177.157C112.454 178.528 113.565 179.639 114.935 179.639Z" fill="#FEFEFE"/>
<path d="M154.906 177.158C154.906 178.536 153.803 179.639 152.424 179.639C151.046 179.639 149.943 178.536 149.943 177.158C149.943 175.779 151.046 174.676 152.424 174.676C153.778 174.651 154.906 175.779 154.906 177.158Z" fill="#FEFEFE"/>
<path d="M23.7112 148.195C23.7112 149.573 22.6085 150.676 21.2302 150.676C19.8518 150.676 18.7491 149.573 18.7491 148.195C18.7491 146.816 19.8518 145.713 21.2302 145.713C22.6085 145.713 23.7112 146.841 23.7112 148.195Z" fill="#FEFEFE"/>
<path d="M58.693 150.676C60.0632 150.676 61.174 149.565 61.174 148.195C61.174 146.824 60.0632 145.713 58.693 145.713C57.3227 145.713 56.2119 146.824 56.2119 148.195C56.2119 149.565 57.3227 150.676 58.693 150.676Z" fill="#FEFEFE"/>
<path d="M96.1874 150.676C97.5576 150.676 98.6684 149.565 98.6684 148.195C98.6684 146.824 97.5576 145.713 96.1874 145.713C94.8171 145.713 93.7062 146.824 93.7062 148.195C93.7062 149.565 94.8171 150.676 96.1874 150.676Z" fill="#FEFEFE"/>
<path d="M136.157 148.195C136.157 149.573 135.054 150.676 133.675 150.676C132.297 150.676 131.194 149.573 131.194 148.195C131.194 146.816 132.297 145.713 133.675 145.713C135.029 145.713 136.157 146.841 136.157 148.195Z" fill="#FEFEFE"/>
<path d="M4.96223 119.232C4.96223 120.61 3.85953 121.713 2.48112 121.713C1.1027 121.713 2.1474e-07 120.61 1.38047e-07 119.232C6.13534e-08 117.853 1.1027 116.751 2.48112 116.751C3.85953 116.751 4.96223 117.853 4.96223 119.232Z" fill="#FEFEFE"/>
<path d="M39.9741 121.713C41.3443 121.713 42.4553 120.602 42.4553 119.232C42.4553 117.862 41.3443 116.751 39.9741 116.751C38.6038 116.751 37.493 117.862 37.493 119.232C37.493 120.602 38.6038 121.713 39.9741 121.713Z" fill="#FEFEFE"/>
<path d="M77.4372 121.713C78.8074 121.713 79.9182 120.602 79.9182 119.232C79.9182 117.862 78.8074 116.751 77.4372 116.751C76.067 116.751 74.9562 117.862 74.9562 119.232C74.9562 120.602 76.067 121.713 77.4372 121.713Z" fill="#FEFEFE"/>
<path d="M114.935 121.713C116.305 121.713 117.416 120.602 117.416 119.232C117.416 117.862 116.305 116.751 114.935 116.751C113.565 116.751 112.454 117.862 112.454 119.232C112.454 120.602 113.565 121.713 114.935 121.713Z" fill="#FEFEFE"/>
<path d="M154.906 119.232C154.906 120.61 153.803 121.713 152.424 121.713C151.046 121.713 149.943 120.61 149.943 119.232C149.943 117.853 151.046 116.751 152.424 116.751C153.778 116.751 154.906 117.853 154.906 119.232Z" fill="#FEFEFE"/>
<path d="M23.7112 90.2694C23.7112 91.6479 22.6085 92.7508 21.2302 92.7508C19.8518 92.7508 18.7491 91.6479 18.7491 90.2694C18.7491 88.8908 19.8518 87.788 21.2302 87.788C22.6085 87.788 23.7112 88.8908 23.7112 90.2694Z" fill="#FEFEFE"/>
<path d="M58.693 92.7508C60.0632 92.7508 61.174 91.6398 61.174 90.2694C61.174 88.899 60.0632 87.788 58.693 87.788C57.3227 87.788 56.2119 88.899 56.2119 90.2694C56.2119 91.6398 57.3227 92.7508 58.693 92.7508Z" fill="#FEFEFE"/>
<path d="M96.1874 92.7508C97.5576 92.7508 98.6684 91.6398 98.6684 90.2694C98.6684 88.899 97.5576 87.788 96.1874 87.788C94.8171 87.788 93.7062 88.899 93.7062 90.2694C93.7062 91.6398 94.8171 92.7508 96.1874 92.7508Z" fill="#FEFEFE"/>
<path d="M136.157 90.2694C136.157 91.6479 135.054 92.7508 133.675 92.7508C132.297 92.7508 131.194 91.6479 131.194 90.2694C131.194 88.8908 132.297 87.788 133.675 87.788C135.029 87.788 136.157 88.8908 136.157 90.2694Z" fill="#FEFEFE"/>
<path d="M4.96223 61.3067C4.96223 62.6852 3.85953 63.788 2.48112 63.788C1.1027 63.788 2.14743e-07 62.6852 1.38048e-07 61.3067C6.13541e-08 59.9282 1.1027 58.8255 2.48112 58.8255C3.85953 58.8255 4.96223 59.9282 4.96223 61.3067Z" fill="#FEFEFE"/>
<path d="M39.9741 63.788C41.3443 63.788 42.4553 62.6771 42.4553 61.3067C42.4553 59.9364 41.3443 58.8255 39.9741 58.8255C38.6038 58.8255 37.493 59.9364 37.493 61.3067C37.493 62.6771 38.6038 63.788 39.9741 63.788Z" fill="#FEFEFE"/>
<path d="M77.4372 63.788C78.8074 63.788 79.9182 62.6771 79.9182 61.3067C79.9182 59.9364 78.8074 58.8255 77.4372 58.8255C76.067 58.8255 74.9562 59.9364 74.9562 61.3067C74.9562 62.6771 76.067 63.788 77.4372 63.788Z" fill="#FEFEFE"/>
<path d="M114.935 63.788C116.305 63.788 117.416 62.6771 117.416 61.3067C117.416 59.9364 116.305 58.8255 114.935 58.8255C113.565 58.8255 112.454 59.9364 112.454 61.3067C112.454 62.6771 113.565 63.788 114.935 63.788Z" fill="#FEFEFE"/>
<path d="M154.906 61.3067C154.906 62.6852 153.803 63.788 152.424 63.788C151.046 63.788 149.943 62.6852 149.943 61.3067C149.943 59.9282 151.046 58.8255 152.424 58.8255C153.778 58.8255 154.906 59.9282 154.906 61.3067Z" fill="#FEFEFE"/>
<path d="M23.7112 32.3441C23.7112 33.7227 22.6085 34.8255 21.2302 34.8255C19.8518 34.8255 18.7491 33.7227 18.7491 32.3441C18.7491 30.9656 19.8518 29.8628 21.2302 29.8628C22.6085 29.8378 23.7112 30.9656 23.7112 32.3441Z" fill="#FEFEFE"/>
<path d="M58.693 34.825C60.0632 34.825 61.174 33.7141 61.174 32.3437C61.174 30.9733 60.0632 29.8624 58.693 29.8624C57.3227 29.8624 56.2119 30.9733 56.2119 32.3437C56.2119 33.7141 57.3227 34.825 58.693 34.825Z" fill="#FEFEFE"/>
<path d="M96.1874 34.825C97.5576 34.825 98.6684 33.7141 98.6684 32.3437C98.6684 30.9733 97.5576 29.8624 96.1874 29.8624C94.8171 29.8624 93.7062 30.9733 93.7062 32.3437C93.7062 33.7141 94.8171 34.825 96.1874 34.825Z" fill="#FEFEFE"/>
<path d="M136.157 32.3441C136.157 33.7227 135.054 34.8255 133.675 34.8255C132.297 34.8255 131.194 33.7227 131.194 32.3441C131.194 30.9656 132.297 29.8628 133.675 29.8628C135.029 29.8378 136.157 30.9656 136.157 32.3441Z" fill="#FEFEFE"/>
<path d="M4.96223 3.38098C4.96223 4.75949 3.85953 5.86242 2.48112 5.86242C1.1027 5.86242 2.14767e-07 4.75949 1.38072e-07 3.38098C6.13773e-08 2.00248 1.1027 0.899702 2.48112 0.899702C3.85953 0.874638 4.96223 2.00248 4.96223 3.38098Z" fill="#FEFEFE"/>
<path d="M39.9741 5.86192C41.3443 5.86192 42.4553 4.75089 42.4553 3.38053C42.4553 2.01017 41.3443 0.899292 39.9741 0.899292C38.6038 0.899292 37.493 2.01017 37.493 3.38053C37.493 4.75089 38.6038 5.86192 39.9741 5.86192Z" fill="#FEFEFE"/>
<path d="M77.4372 5.86192C78.8074 5.86192 79.9182 4.75089 79.9182 3.38053C79.9182 2.01017 78.8074 0.899292 77.4372 0.899292C76.067 0.899292 74.9562 2.01017 74.9562 3.38053C74.9562 4.75089 76.067 5.86192 77.4372 5.86192Z" fill="#FEFEFE"/>
<path d="M114.935 5.86192C116.305 5.86192 117.416 4.75089 117.416 3.38053C117.416 2.01017 116.305 0.899292 114.935 0.899292C113.565 0.899292 112.454 2.01017 112.454 3.38053C112.454 4.75089 113.565 5.86192 114.935 5.86192Z" fill="#FEFEFE"/>
<path d="M154.906 3.38098C154.906 4.75949 153.803 5.86242 152.424 5.86242C151.046 5.86242 149.943 4.75949 149.943 3.38098C149.943 2.00248 151.046 0.899702 152.424 0.899702C153.778 0.874638 154.906 2.00248 154.906 3.38098Z" fill="#FEFEFE"/>
</svg>
