<svg width="119" height="80" viewBox="0 0 119 80" fill="none" xmlns="http://www.w3.org/2000/svg">
<path d="M10.3145 47.5116C10.3569 47.5116 10.4 47.5105 10.443 47.5076C11.6329 47.4382 12.5414 46.4165 12.4715 45.2268C12.3658 43.4325 12.3182 41.7979 12.3182 40.3102C12.309 33.7767 13.2612 30.1063 14.1968 28.191V68.6641C14.1968 70.5071 15.6908 72 17.5326 72C19.375 72 20.8691 70.5071 20.8691 68.6641V44.3068H22.1197V68.6641C22.1197 70.5071 23.6138 72 25.4556 72C27.298 72 28.792 70.5071 28.792 68.6641V25.2229C29.3511 24.9905 30.1018 24.7098 31.0051 24.4418C31.3943 25.13 32.1186 25.538 32.8797 25.538C32.9262 25.538 32.9727 25.534 33.0192 25.5312V68.6638C33.0192 70.5068 34.5132 71.9997 36.3551 71.9997C38.1975 71.9997 39.6915 70.5068 39.6915 68.6638V44.3065H40.9422V68.6638C40.9422 70.5068 42.4362 71.9997 44.278 71.9997C46.1204 71.9997 47.6145 70.5068 47.6145 68.6638V25.443C48.0553 25.2771 48.4421 24.9689 48.6998 24.5442C49.0344 24.4397 49.4288 24.3266 49.8736 24.2136C49.9006 24.2205 49.9293 24.2273 49.9562 24.2342C49.9769 24.2394 49.9964 24.2451 50.0171 24.2503C50.3724 25.0544 51.1604 25.5377 51.991 25.5377C52.0369 25.5377 52.084 25.5337 52.1305 25.5308V68.6634C52.1305 70.5064 53.6245 71.9993 55.4663 71.9993C57.3087 71.9993 58.8028 70.5064 58.8028 68.6634V44.3061H60.0534V68.6634C60.0534 70.5064 61.5475 71.9993 63.3893 71.9993C65.2317 71.9993 66.7257 70.5064 66.7257 68.6634V25.5293C66.7722 25.5322 66.8187 25.5362 66.8652 25.5362C67.6946 25.5362 68.4827 25.0535 68.8385 24.25C68.8867 24.2374 68.935 24.2247 68.9837 24.2121C69.0113 24.219 69.0406 24.2259 69.0675 24.2333C69.4785 24.3395 69.8418 24.4451 70.1552 24.5427C70.4129 24.968 70.8009 25.2762 71.2417 25.4421V68.6629C71.2417 70.5059 72.7357 71.9988 74.5776 71.9988C76.42 71.9988 77.914 70.5059 77.914 68.6629V44.3056H79.1647V68.6629C79.1647 70.5059 80.6587 71.9988 82.5005 71.9988C84.3429 71.9988 85.837 70.5059 85.837 68.6629V25.5288C85.8835 25.5317 85.9299 25.5357 85.9759 25.5357C86.7381 25.5357 87.4618 25.127 87.8516 24.4383C88.0755 24.5048 88.2913 24.572 88.4956 24.6391C89.1172 24.8429 89.6441 25.0455 90.0643 25.2211L90.0637 68.6623C90.0637 70.5053 91.5577 71.9982 93.4002 71.9982C95.242 71.9982 96.736 70.5053 96.736 68.6623V44.305H97.9867V68.6623C97.9867 70.5053 99.4807 71.9982 101.323 71.9982C103.165 71.9982 104.659 70.5053 104.659 68.6623V28.201C104.819 28.5287 104.98 28.9052 105.139 29.3437C105.899 31.4514 106.539 34.9101 106.536 40.3087C106.536 41.7958 106.488 43.4311 106.384 45.2259C106.315 46.4163 107.223 47.4374 108.414 47.5063C108.456 47.5086 108.499 47.5103 108.541 47.5103C109.676 47.5103 110.628 46.6247 110.694 45.4773C110.802 43.6069 110.852 41.8895 110.853 40.3094C110.842 32.1648 109.541 27.6586 107.768 24.9488C107.56 24.6337 107.344 24.3479 107.123 24.0844C107.494 23.0209 106.983 21.838 105.931 21.3902C104.163 20.6383 102.424 20.1074 100.749 19.7453C99.7584 20.3394 98.5996 20.682 97.3615 20.682C95.7413 20.682 94.2563 20.0954 93.1056 19.1242C90.9377 19.2281 89.0546 19.5461 87.5633 19.8962C86.1422 19.5622 84.5042 19.2947 82.7001 19.2034C81.5631 20.1269 80.1149 20.6819 78.5395 20.6819C76.9123 20.6819 75.4217 20.0901 74.2687 19.1115C72.2381 19.1907 70.4484 19.4604 68.9836 19.7761C67.5188 19.4604 65.7293 19.1906 63.6985 19.1115C62.5454 20.0901 61.0549 20.6819 59.4283 20.6819C57.8017 20.6819 56.3105 20.0901 55.1575 19.1115C53.1269 19.1907 51.3372 19.461 49.8724 19.7761C48.4082 19.4604 46.6186 19.1906 44.5879 19.1115C43.4348 20.0901 41.9443 20.6819 40.3171 20.6819C38.7415 20.6819 37.2935 20.1269 36.1559 19.2034C34.352 19.2941 32.7133 19.5616 31.2921 19.8962C29.801 19.5461 27.9178 19.2281 25.7499 19.1242C24.5991 20.0954 23.1148 20.682 21.4945 20.682C20.257 20.682 19.0982 20.3394 18.1059 19.7447C16.43 20.1063 14.6914 20.6384 12.9235 21.3897C11.8714 21.8362 11.3606 23.0204 11.7314 24.0845C11.0398 24.9098 10.3918 25.9814 9.85622 27.3451C8.7479 30.1455 8.00411 34.1953 8 40.3087C8.00057 41.8888 8.05108 43.6072 8.16072 45.4784C8.22787 46.6258 9.17977 47.5116 10.3145 47.5116Z" fill="#161616"/>
<path d="M27.564 14.0713C27.564 17.4244 24.8457 20.1421 21.4932 20.1421C18.1402 20.1421 15.4219 17.4244 15.4219 14.0713C15.4219 10.7183 18.1402 8 21.4932 8C24.8457 8 27.564 10.7183 27.564 14.0713Z" fill="#161616"/>
<path d="M103.18 14.0713C103.18 17.2863 100.574 19.8921 97.3588 19.8921C94.1444 19.8921 91.5381 17.2863 91.5381 14.0713C91.5381 10.8563 94.1445 8.25 97.3588 8.25C100.574 8.25 103.18 10.8564 103.18 14.0713Z" fill="#FFC857" stroke="#161616" stroke-width="0.5"/>
<path d="M46.3872 14.0713C46.3872 17.4244 43.6689 20.1421 40.3159 20.1421C36.9628 20.1421 34.2451 17.4244 34.2451 14.0713C34.2451 10.7183 36.9628 8 40.3159 8C43.6689 8 46.3872 10.7183 46.3872 14.0713Z" fill="#084C61"/>
<path d="M65.5023 14.0713C65.5023 17.4244 62.784 20.1421 59.431 20.1421C56.0785 20.1421 53.3602 17.4244 53.3602 14.0713C53.3602 10.7183 56.0785 8 59.431 8C62.784 8 65.5023 10.7183 65.5023 14.0713Z" fill="#DB3A34"/>
<path d="M84.6052 14.0713C84.6052 17.4244 81.8869 20.1421 78.5345 20.1421C75.1814 20.1421 72.4631 17.4244 72.4631 14.0713C72.4631 10.7183 75.1814 8 78.5345 8C81.8869 8 84.6052 10.7183 84.6052 14.0713Z" fill="#177E89"/>
</svg>
