<svg width="64" height="64" viewBox="0 0 64 64" fill="none" xmlns="http://www.w3.org/2000/svg">
<path d="M41.2042 20.1108H22.8364C21.344 20.1108 20.127 21.3224 20.127 22.8202V41.188C20.127 42.6804 21.3386 43.8975 22.8364 43.8975H41.2042C42.6965 43.8975 43.9136 42.6859 43.9136 41.188V22.8147C43.9136 21.322 42.6966 20.1104 41.2042 20.1104V20.1108ZM42.3534 41.1828C42.3534 41.8173 41.8386 42.332 41.2042 42.332L22.8364 42.3324C22.2019 42.3324 21.6872 41.8177 21.6872 41.1832V22.8154C21.6872 22.181 22.2019 21.6662 22.8364 21.6662L41.2042 21.6658C41.8386 21.6658 42.3534 22.1806 42.3534 22.815V41.1828Z" fill="#177E89"/>
<path d="M55.2197 32.7798C55.6514 32.7798 55.9996 32.4312 55.9996 31.9999C55.9996 31.5682 55.651 31.22 55.2197 31.22H47.4089V28.2142H55.2201C55.6518 28.2142 56 27.8656 56 27.4343C56 27.0026 55.6514 26.6544 55.2201 26.6544L47.4089 26.654V22.0205C47.4089 19.0405 44.9853 16.6173 42.0057 16.6173H37.5333V8.77992C37.5333 8.34824 37.1847 8 36.7534 8C36.3217 8 35.9734 8.34861 35.9734 8.77992V16.6118H32.9677L32.967 8.77992C32.967 8.34824 32.6183 8 32.187 8C31.7554 8 31.4071 8.34861 31.4071 8.77992V16.6118H28.4014L28.401 8.77992C28.401 8.34824 28.0524 8 27.6211 8C27.1894 8 26.8412 8.34861 26.8412 8.77992V16.6118H22.0463C19.0662 16.6118 16.643 19.0354 16.643 22.015V26.6486H8.77992C8.34824 26.6486 8 26.9972 8 27.4285C8 27.8601 8.34861 28.2084 8.77992 28.2084H16.6325V31.2142L8.77992 31.2145C8.34824 31.2145 8 31.5631 8 31.9944C8 32.4261 8.34861 32.7744 8.77992 32.7744H16.6325V35.7801L8.77992 35.7805C8.34824 35.7805 8 36.1291 8 36.5604C8 36.9921 8.34861 37.3403 8.77992 37.3403H16.6325V41.9738C16.6325 44.9539 19.0561 47.3771 22.0358 47.3771H26.8307V55.209C26.8307 55.6406 27.1793 55.9889 27.6106 55.9889C28.0423 55.9889 28.3905 55.6403 28.3905 55.209L28.3909 47.3879H31.3966V55.2198C31.3966 55.6515 31.7452 55.9997 32.1765 55.9997C32.6082 55.9997 32.9565 55.6511 32.9565 55.2198L32.9568 47.3879H35.9626V55.2198C35.9626 55.6515 36.3112 55.9997 36.7425 55.9997C37.1742 55.9997 37.5224 55.6511 37.5224 55.2198L37.5228 47.3879H41.9952C44.9752 47.3879 47.3984 44.9644 47.3984 41.9847V37.3512H55.2096C55.6413 37.3512 55.9895 37.0026 55.9895 36.5713C55.9895 36.1396 55.6409 35.7913 55.2096 35.7913L47.4089 35.791V32.7797L55.2197 32.7798ZM42.005 45.8274H22.0409C19.9191 45.8274 18.1978 44.1006 18.1978 41.9843L18.1975 22.0202C18.1975 19.8984 19.9242 18.1772 22.0405 18.1772H42C44.1218 18.1772 45.843 19.9039 45.843 22.0202V27.257C45.8274 27.3143 45.8224 27.3712 45.8224 27.4336C45.8224 27.496 45.8329 27.5533 45.843 27.6103V31.8225C45.8274 31.8799 45.8224 31.9368 45.8224 31.9992C45.8224 32.0616 45.8329 32.1189 45.843 32.1759V36.3881C45.8274 36.4454 45.8224 36.5024 45.8224 36.5648C45.8224 36.6272 45.8329 36.6845 45.843 36.7414V41.9782C45.8485 44.1014 44.1218 45.8277 42.0051 45.8277L42.005 45.8274Z" fill="#177E89"/>
</svg>
