<svg width="65" height="64" viewBox="0 0 65 64" fill="none" xmlns="http://www.w3.org/2000/svg">
<path d="M58.8609 4.91618L56.5538 0L54.2466 4.91618L49.0871 5.70475L52.8204 9.53049L51.939 14.9333L56.5537 12.3828L61.168 14.9333L60.2871 9.53049L64.0204 5.70475L58.8609 4.91618Z" fill="#FFC857"/>
<path d="M60.0657 26.98L63.0829 23.9629L64.5914 25.4715L61.5743 28.4886L60.0657 26.98Z" fill="#FFC857"/>
<path d="M48.3323 25.4705L49.8409 23.9619L52.8581 26.9791L51.3495 28.4876L48.3323 25.4705Z" fill="#FFC857"/>
<path d="M55.4876 21.333H57.6209V25.5997H55.4876V21.333Z" fill="#FFC857"/>
<path d="M8.86665 37.333H4.59998C2.2438 37.333 0.333313 39.2435 0.333313 41.5997V52.2663H2.46665V63.9997H11V52.2663H13.1333V41.5997C13.1333 39.2435 11.2228 37.333 8.86665 37.333Z" fill="#161616"/>
<path d="M6.93237 28.8036C9.28623 28.914 11.1052 30.9117 10.9947 33.2655C10.8843 35.6194 8.88711 37.438 6.53326 37.3279C4.1794 37.2174 2.36045 35.2198 2.4709 32.8659C2.5809 30.5121 4.57851 28.6935 6.93237 28.8036Z" fill="#161616"/>
<path d="M25.9331 37.333H21.6664C19.3102 37.333 17.3997 39.2435 17.3997 41.5997V52.2663H19.5331V63.9997H28.0664V52.2663H30.1997V41.5997C30.1997 39.2435 28.2892 37.333 25.9331 37.333Z" fill="#161616"/>
<path d="M28.061 33.3082C28.1943 30.9553 26.3958 28.9401 24.0439 28.8058C21.691 28.6724 19.6758 30.471 19.5414 32.8239C19.4081 35.1768 21.2067 37.192 23.5586 37.3263C25.9115 37.4601 27.9262 35.6616 28.061 33.3082Z" fill="#161616"/>
<path d="M58.6879 37.333H54.4213C52.0651 37.333 50.1546 39.2435 50.1546 41.5997V52.2663H52.2879V63.9997H60.8213V52.2663H62.9546V41.5997C62.9546 39.2435 61.0441 37.333 58.6879 37.333Z" fill="#FFC857"/>
<path d="M52.2954 32.825C52.162 35.1779 53.9606 37.1931 56.3125 37.3274C58.6654 37.4608 60.6806 35.6622 60.8149 33.3103C60.9483 30.9574 59.1497 28.9422 56.7978 28.8079C54.4449 28.6731 52.4287 30.4716 52.2954 32.825Z" fill="#FFC857"/>
</svg>
