<svg width="224" height="301" viewBox="0 0 224 301" fill="none" xmlns="http://www.w3.org/2000/svg">
<circle opacity="0.5" cx="139.493" cy="202.521" r="73.5211" transform="rotate(180 139.493 202.521)" fill="#6A6E71"/>
<g opacity="0.3">
<path d="M98.5088 193.437C98.5088 192.616 99.1656 191.959 99.9867 191.959C100.808 191.959 101.465 192.616 101.465 193.437C101.465 194.258 100.808 194.915 99.9867 194.915C99.1656 194.93 98.5088 194.258 98.5088 193.437Z" fill="#FEFEFE"/>
<path d="M77.6525 191.959C76.8362 191.959 76.1745 192.621 76.1745 193.437C76.1745 194.253 76.8362 194.915 77.6525 194.915C78.4687 194.915 79.1304 194.253 79.1304 193.437C79.1304 192.621 78.4687 191.959 77.6525 191.959Z" fill="#FEFEFE"/>
<path d="M55.3363 191.959C54.52 191.959 53.8583 192.621 53.8583 193.437C53.8583 194.253 54.52 194.915 55.3363 194.915C56.1525 194.915 56.8142 194.253 56.8142 193.437C56.8142 192.621 56.1525 191.959 55.3363 191.959Z" fill="#FEFEFE"/>
<path d="M32.9987 191.959C32.1824 191.959 31.5207 192.621 31.5207 193.437C31.5207 194.253 32.1824 194.915 32.9987 194.915C33.8149 194.915 34.4766 194.253 34.4766 193.437C34.4766 192.621 33.8149 191.959 32.9987 191.959Z" fill="#FEFEFE"/>
<path d="M9.1891 193.437C9.1891 192.616 9.84605 191.959 10.6672 191.959C11.4882 191.959 12.1451 192.616 12.1451 193.437C12.1451 194.258 11.4882 194.915 10.6672 194.915C9.86098 194.93 9.1891 194.258 9.1891 193.437Z" fill="#FEFEFE"/>
<path d="M87.342 176.432C87.342 175.61 87.9989 174.953 88.8199 174.953C89.641 174.953 90.2979 175.61 90.2979 176.432C90.2979 177.253 89.641 177.91 88.8199 177.91C87.9989 177.925 87.342 177.253 87.342 176.432Z" fill="#FEFEFE"/>
<path d="M66.5038 174.954C65.6875 174.954 65.0258 175.615 65.0258 176.432C65.0258 177.248 65.6875 177.91 66.5038 177.91C67.32 177.91 67.9817 177.248 67.9817 176.432C67.9817 175.615 67.32 174.954 66.5038 174.954Z" fill="#FEFEFE"/>
<path d="M44.1688 174.954C43.3526 174.954 42.6909 175.615 42.6909 176.432C42.6909 177.248 43.3526 177.91 44.1688 177.91C44.9851 177.91 45.6469 177.248 45.6469 176.432C45.6469 175.615 44.9851 174.954 44.1688 174.954Z" fill="#FEFEFE"/>
<path d="M20.3593 176.432C20.3593 175.61 21.0162 174.953 21.8373 174.953C22.6584 174.953 23.3153 175.61 23.3153 176.432C23.3153 177.253 22.6584 177.91 21.8373 177.91C21.0311 177.925 20.3593 177.253 20.3593 176.432Z" fill="#FEFEFE"/>
</g>
<g opacity="0.3">
<path d="M98.5088 159.336C98.5088 158.515 99.1656 157.858 99.9867 157.858C100.808 157.858 101.465 158.515 101.465 159.336C101.465 160.158 100.808 160.814 99.9867 160.814C99.1656 160.814 98.5088 160.158 98.5088 159.336Z" fill="#FEFEFE"/>
<path d="M77.6525 157.858C76.8362 157.858 76.1745 158.52 76.1745 159.336C76.1745 160.153 76.8362 160.814 77.6525 160.814C78.4687 160.814 79.1304 160.153 79.1304 159.336C79.1304 158.52 78.4687 157.858 77.6525 157.858Z" fill="#FEFEFE"/>
<path d="M55.3363 157.858C54.52 157.858 53.8583 158.52 53.8583 159.336C53.8583 160.153 54.52 160.814 55.3363 160.814C56.1525 160.814 56.8142 160.153 56.8142 159.336C56.8142 158.52 56.1525 157.858 55.3363 157.858Z" fill="#FEFEFE"/>
<path d="M32.9987 157.858C32.1825 157.858 31.5208 158.52 31.5208 159.336C31.5208 160.153 32.1825 160.814 32.9987 160.814C33.815 160.814 34.4767 160.153 34.4767 159.336C34.4767 158.52 33.815 157.858 32.9987 157.858Z" fill="#FEFEFE"/>
<path d="M9.1891 159.336C9.1891 158.515 9.84605 157.858 10.6672 157.858C11.4882 157.858 12.1451 158.515 12.1451 159.336C12.1451 160.158 11.4882 160.814 10.6672 160.814C9.86098 160.814 9.1891 160.158 9.1891 159.336Z" fill="#FEFEFE"/>
<path d="M87.342 142.331C87.342 141.51 87.9989 140.853 88.8199 140.853C89.641 140.853 90.2979 141.51 90.2979 142.331C90.2979 143.152 89.641 143.809 88.8199 143.809C87.9989 143.809 87.342 143.152 87.342 142.331Z" fill="#FEFEFE"/>
<path d="M66.5038 140.853C65.6875 140.853 65.0258 141.515 65.0258 142.331C65.0258 143.147 65.6875 143.809 66.5038 143.809C67.32 143.809 67.9817 143.147 67.9817 142.331C67.9817 141.515 67.32 140.853 66.5038 140.853Z" fill="#FEFEFE"/>
<path d="M44.1688 140.853C43.3526 140.853 42.6909 141.515 42.6909 142.331C42.6909 143.147 43.3526 143.809 44.1688 143.809C44.9851 143.809 45.6469 143.147 45.6469 142.331C45.6469 141.515 44.9851 140.853 44.1688 140.853Z" fill="#FEFEFE"/>
<path d="M20.3593 142.331C20.3593 141.51 21.0162 140.853 21.8373 140.853C22.6584 140.853 23.3153 141.51 23.3153 142.331C23.3153 143.152 22.6584 143.809 21.8373 143.809C21.0311 143.809 20.3593 143.152 20.3593 142.331Z" fill="#FEFEFE"/>
</g>
<g opacity="0.3">
<path d="M98.5088 125.236C98.5088 124.415 99.1656 123.758 99.9867 123.758C100.808 123.758 101.465 124.415 101.465 125.236C101.465 126.057 100.808 126.714 99.9867 126.714C99.1656 126.714 98.5088 126.057 98.5088 125.236Z" fill="#FEFEFE"/>
<path d="M77.6525 123.758C76.8362 123.758 76.1745 124.42 76.1745 125.236C76.1745 126.053 76.8362 126.714 77.6525 126.714C78.4687 126.714 79.1304 126.053 79.1304 125.236C79.1304 124.42 78.4687 123.758 77.6525 123.758Z" fill="#FEFEFE"/>
<path d="M55.3363 123.758C54.52 123.758 53.8583 124.42 53.8583 125.236C53.8583 126.053 54.52 126.714 55.3363 126.714C56.1525 126.714 56.8142 126.053 56.8142 125.236C56.8142 124.42 56.1525 123.758 55.3363 123.758Z" fill="#FEFEFE"/>
<path d="M32.9987 123.758C32.1825 123.758 31.5208 124.42 31.5208 125.236C31.5208 126.053 32.1825 126.714 32.9987 126.714C33.815 126.714 34.4767 126.053 34.4767 125.236C34.4767 124.42 33.815 123.758 32.9987 123.758Z" fill="#FEFEFE"/>
<path d="M9.1891 125.236C9.1891 124.415 9.84605 123.758 10.6672 123.758C11.4882 123.758 12.1451 124.415 12.1451 125.236C12.1451 126.058 11.4882 126.714 10.6672 126.714C9.86098 126.714 9.1891 126.058 9.1891 125.236Z" fill="#FEFEFE"/>
<path d="M87.342 108.231C87.342 107.41 87.9989 106.753 88.8199 106.753C89.641 106.753 90.2979 107.41 90.2979 108.231C90.2979 109.052 89.641 109.709 88.8199 109.709C87.9989 109.709 87.342 109.037 87.342 108.231Z" fill="#FEFEFE"/>
<path d="M66.5038 106.753C65.6875 106.753 65.0258 107.415 65.0258 108.231C65.0258 109.047 65.6875 109.709 66.5038 109.709C67.32 109.709 67.9817 109.047 67.9817 108.231C67.9817 107.415 67.32 106.753 66.5038 106.753Z" fill="#FEFEFE"/>
<path d="M44.1688 106.753C43.3526 106.753 42.6909 107.415 42.6909 108.231C42.6909 109.047 43.3526 109.709 44.1688 109.709C44.9851 109.709 45.6469 109.047 45.6469 108.231C45.6469 107.415 44.9851 106.753 44.1688 106.753Z" fill="#FEFEFE"/>
<path d="M20.3593 108.231C20.3593 107.41 21.0162 106.753 21.8373 106.753C22.6584 106.753 23.3153 107.41 23.3153 108.231C23.3153 109.052 22.6584 109.709 21.8373 109.709C21.0311 109.709 20.3593 109.037 20.3593 108.231Z" fill="#FEFEFE"/>
</g>
<g opacity="0.5">
<path d="M151.324 170.605L145.315 167.133L145.315 174.077L151.324 170.605Z" fill="white"/>
<path d="M151.324 177.548L145.315 174.077L145.315 181.02L151.324 177.548Z" fill="white"/>
<path d="M151.324 184.492L145.315 181.02L145.315 187.964L151.324 184.492Z" fill="white"/>
<path d="M151.324 191.443L145.315 187.963L145.315 194.915L151.324 191.443Z" fill="white"/>
</g>
<g opacity="0.5">
<path d="M145.314 174.077L139.296 170.605L139.296 177.548L145.314 174.077Z" fill="white"/>
<path d="M145.314 181.02L139.296 177.548L139.296 184.492L145.314 181.02Z" fill="white"/>
<path d="M145.314 187.963L139.296 184.492L139.296 191.443L145.314 187.963Z" fill="white"/>
</g>
<g opacity="0.5">
<path d="M139.295 170.605L133.277 167.133L133.277 174.077L139.295 170.605Z" fill="white"/>
<path d="M139.295 177.548L133.277 174.077L133.277 181.02L139.295 177.548Z" fill="white"/>
<path d="M139.295 184.492L133.277 181.02L133.277 187.964L139.295 184.492Z" fill="white"/>
<path d="M139.295 191.443L133.277 187.963L133.277 194.915L139.295 191.443Z" fill="white"/>
</g>
<g opacity="0.5">
<path d="M133.277 174.077L127.267 170.605L127.267 177.548L133.277 174.077Z" fill="white"/>
<path d="M133.277 181.02L127.267 177.548L127.267 184.492L133.277 181.02Z" fill="white"/>
<path d="M133.277 187.963L127.268 184.492L127.268 191.443L133.277 187.963Z" fill="white"/>
</g>
<path opacity="0.5" d="M203.719 197.961C197.558 200.557 194.966 194.684 188.797 197.288C182.636 199.884 185.228 205.756 179.067 208.352C172.906 210.948 170.314 205.075 164.145 207.679C157.984 210.275 160.576 216.148 154.416 218.743C148.255 221.339 145.654 215.467 139.493 218.07" stroke="white" stroke-width="2" stroke-miterlimit="10"/>
<path opacity="0.5" d="M0.901884 246.465L82.0286 199.626L82.0286 293.303L0.901884 246.465Z" fill="#F2F2F2"/>
<path opacity="0.5" d="M54.9859 85.0561L181.746 11.8709L181.746 158.241L54.9859 85.0561Z" fill="#F2F2F2"/>
</svg>
