<svg width="29" height="29" viewBox="0 0 29 29" fill="none" xmlns="http://www.w3.org/2000/svg">
<path d="M28.5941 8.80841C28.5271 7.28877 28.2814 6.24404 27.9294 5.33876C27.5662 4.37784 27.0075 3.51752 26.2755 2.80233C25.5603 2.07602 24.6943 1.51164 23.7445 1.15415C22.834 0.802126 21.7947 0.556383 20.2751 0.489382C18.7441 0.416707 18.2581 0.399902 14.3751 0.399902C10.4921 0.399902 10.0061 0.416707 8.48077 0.483708C6.96114 0.550709 5.9164 0.79667 5.01134 1.14848C4.0502 1.51164 3.18988 2.07034 2.4747 2.80233C1.74838 3.51752 1.18422 4.38351 0.826517 5.33331C0.474489 6.24404 0.228747 7.2831 0.161746 8.80273C0.0890704 10.3337 0.0722656 10.8197 0.0722656 14.7027C0.0722656 18.5857 0.0890704 19.0718 0.156071 20.5971C0.223072 22.1167 0.469033 23.1614 0.821061 24.0667C1.18422 25.0276 1.74838 25.888 2.4747 26.6031C3.18988 27.3295 4.05587 27.8938 5.00567 28.2513C5.9164 28.6034 6.95546 28.8491 8.47531 28.9161C10.0004 28.9833 10.4867 28.9999 14.3696 28.9999C18.2526 28.9999 18.7387 28.9833 20.264 28.9161C21.7836 28.8491 22.8283 28.6034 23.7334 28.2513C25.6555 27.5082 27.1751 25.9886 27.9182 24.0667C28.27 23.156 28.516 22.1167 28.583 20.5971C28.65 19.0718 28.6668 18.5857 28.6668 14.7027C28.6668 10.8197 28.6611 10.3337 28.5941 8.80841ZM26.0186 20.4853C25.9571 21.8821 25.7225 22.6363 25.5269 23.1392C25.0464 24.3851 24.0575 25.374 22.8115 25.8546C22.3087 26.0501 21.549 26.2847 20.1577 26.3461C18.6492 26.4133 18.1968 26.4299 14.3808 26.4299C10.5648 26.4299 10.1067 26.4133 8.60364 26.3461C7.20688 26.2847 6.45263 26.0501 5.94979 25.8546C5.32976 25.6254 4.76538 25.2623 4.30729 24.7874C3.83239 24.3236 3.46923 23.7649 3.24008 23.1449C3.04453 22.642 2.80992 21.8821 2.74859 20.491C2.68137 18.9825 2.66479 18.5299 2.66479 14.7139C2.66479 10.8979 2.68137 10.4398 2.74859 8.93695C2.80992 7.54019 3.04453 6.78594 3.24008 6.28311C3.46923 5.66286 3.83239 5.0987 4.31296 4.64038C4.77651 4.16548 5.33522 3.80233 5.95547 3.57339C6.4583 3.37784 7.21823 3.14323 8.60931 3.08168C10.1178 3.01468 10.5705 2.99788 14.3862 2.99788C18.2079 2.99788 18.6603 3.01468 20.1634 3.08168C21.5601 3.14323 22.3144 3.37784 22.8172 3.57339C23.4372 3.80233 24.0016 4.16548 24.4597 4.64038C24.9346 5.10415 25.2978 5.66286 25.5269 6.28311C25.7225 6.78594 25.9571 7.54565 26.0186 8.93695C26.0856 10.4455 26.1024 10.8979 26.1024 14.7139C26.1024 18.5299 26.0856 18.9768 26.0186 20.4853Z" fill="#E4E4E4"/>
<path d="M14.3737 7.35571C10.3176 7.35571 7.02673 10.6464 7.02673 14.7027C7.02673 18.759 10.3176 22.0496 14.3737 22.0496C18.43 22.0496 21.7207 18.759 21.7207 14.7027C21.7207 10.6464 18.43 7.35571 14.3737 7.35571ZM14.3737 19.4685C11.7423 19.4685 9.6079 17.3343 9.6079 14.7027C9.6079 12.0711 11.7423 9.93688 14.3737 9.93688C17.0053 9.93688 19.1395 12.0711 19.1395 14.7027C19.1395 17.3343 17.0053 19.4685 14.3737 19.4685Z" fill="#E4E4E4"/>
<path d="M23.7239 7.06528C23.7239 8.01246 22.9559 8.78046 22.0085 8.78046C21.0613 8.78046 20.2933 8.01246 20.2933 7.06528C20.2933 6.11788 21.0613 5.3501 22.0085 5.3501C22.9559 5.3501 23.7239 6.11788 23.7239 7.06528Z" fill="#E4E4E4"/>
</svg>
