<svg width="318" height="370" viewBox="0 0 318 370" fill="none" xmlns="http://www.w3.org/2000/svg">
<circle opacity="0.5" cx="241.42" cy="202.628" r="73.5211" transform="rotate(135 241.42 202.628)" fill="#6A6E71"/>
<g opacity="0.3">
<path d="M206.017 225.185C205.436 224.605 205.436 223.676 206.017 223.095C206.597 222.514 207.526 222.515 208.107 223.095C208.688 223.676 208.688 224.605 208.107 225.185C207.537 225.777 206.597 225.766 206.017 225.185Z" fill="#FEFEFE"/>
<path d="M190.224 238.888C189.647 239.465 189.647 240.401 190.224 240.978C190.801 241.555 191.737 241.555 192.314 240.978C192.891 240.401 192.891 239.465 192.314 238.888C191.737 238.311 190.801 238.311 190.224 238.888Z" fill="#FEFEFE"/>
<path d="M174.444 254.668C173.867 255.245 173.867 256.181 174.444 256.758C175.021 257.335 175.957 257.335 176.534 256.758C177.112 256.181 177.112 255.245 176.534 254.668C175.957 254.091 175.021 254.091 174.444 254.668Z" fill="#FEFEFE"/>
<path d="M158.649 270.463C158.072 271.04 158.072 271.976 158.649 272.553C159.226 273.13 160.162 273.13 160.739 272.553C161.317 271.976 161.316 271.04 160.739 270.463C160.162 269.886 159.226 269.886 158.649 270.463Z" fill="#FEFEFE"/>
<path d="M142.858 288.344C142.278 287.763 142.278 286.834 142.858 286.254C143.439 285.673 144.368 285.673 144.948 286.254C145.529 286.834 145.529 287.763 144.949 288.344C144.389 288.925 143.439 288.925 142.858 288.344Z" fill="#FEFEFE"/>
<path d="M186.096 221.057C185.515 220.476 185.515 219.547 186.096 218.967C186.677 218.386 187.605 218.386 188.186 218.967C188.767 219.547 188.767 220.476 188.186 221.057C187.616 221.648 186.677 221.637 186.096 221.057Z" fill="#FEFEFE"/>
<path d="M170.316 234.747C169.739 235.324 169.739 236.26 170.316 236.837C170.893 237.414 171.829 237.414 172.406 236.837C172.984 236.26 172.983 235.324 172.406 234.747C171.829 234.169 170.893 234.169 170.316 234.747Z" fill="#FEFEFE"/>
<path d="M154.523 250.54C153.946 251.117 153.946 252.053 154.523 252.63C155.1 253.207 156.036 253.207 156.613 252.63C157.19 252.053 157.19 251.117 156.613 250.54C156.036 249.963 155.1 249.963 154.523 250.54Z" fill="#FEFEFE"/>
<path d="M138.732 268.421C138.151 267.84 138.151 266.911 138.732 266.33C139.313 265.75 140.242 265.75 140.822 266.331C141.403 266.911 141.403 267.84 140.822 268.421C140.263 269.001 139.313 269.001 138.732 268.421Z" fill="#FEFEFE"/>
</g>
<g opacity="0.3">
<path d="M181.904 201.073C181.323 200.492 181.323 199.563 181.904 198.982C182.485 198.402 183.414 198.402 183.994 198.983C184.575 199.563 184.575 200.492 183.994 201.073C183.414 201.653 182.485 201.653 181.904 201.073Z" fill="#FEFEFE"/>
<path d="M166.111 214.775C165.534 215.352 165.534 216.288 166.111 216.865C166.689 217.443 167.624 217.443 168.202 216.865C168.779 216.288 168.779 215.353 168.202 214.775C167.624 214.198 166.688 214.198 166.111 214.775Z" fill="#FEFEFE"/>
<path d="M150.331 230.555C149.754 231.132 149.754 232.068 150.331 232.645C150.909 233.223 151.844 233.223 152.422 232.646C152.999 232.068 152.999 231.133 152.422 230.555C151.844 229.978 150.909 229.978 150.331 230.555Z" fill="#FEFEFE"/>
<path d="M134.536 246.35C133.959 246.927 133.959 247.863 134.536 248.44C135.114 249.018 136.049 249.018 136.627 248.44C137.204 247.863 137.204 246.927 136.627 246.35C136.049 245.773 135.114 245.773 134.536 246.35Z" fill="#FEFEFE"/>
<path d="M118.746 264.231C118.165 263.651 118.165 262.722 118.746 262.141C119.326 261.56 120.255 261.56 120.836 262.141C121.416 262.722 121.416 263.651 120.836 264.231C120.266 264.801 119.326 264.812 118.746 264.231Z" fill="#FEFEFE"/>
<path d="M161.983 196.944C161.403 196.364 161.403 195.435 161.983 194.854C162.564 194.273 163.493 194.274 164.074 194.854C164.654 195.435 164.654 196.364 164.074 196.944C163.493 197.525 162.564 197.525 161.983 196.944Z" fill="#FEFEFE"/>
<path d="M146.203 210.634C145.626 211.211 145.626 212.147 146.203 212.724C146.781 213.301 147.717 213.301 148.294 212.724C148.871 212.147 148.871 211.211 148.294 210.634C147.716 210.057 146.781 210.057 146.203 210.634Z" fill="#FEFEFE"/>
<path d="M130.41 226.427C129.833 227.004 129.833 227.94 130.41 228.517C130.988 229.095 131.923 229.095 132.501 228.517C133.078 227.94 133.078 227.004 132.5 226.427C131.923 225.85 130.987 225.85 130.41 226.427Z" fill="#FEFEFE"/>
<path d="M114.619 244.308C114.039 243.727 114.039 242.798 114.619 242.218C115.2 241.637 116.129 241.637 116.71 242.218C117.29 242.799 117.29 243.728 116.71 244.308C116.14 244.878 115.2 244.889 114.619 244.308Z" fill="#FEFEFE"/>
</g>
<g opacity="0.3">
<path d="M157.792 176.96C157.211 176.38 157.211 175.451 157.791 174.87C158.372 174.289 159.301 174.289 159.882 174.87C160.462 175.451 160.462 176.38 159.882 176.96C159.301 177.541 158.372 177.541 157.792 176.96Z" fill="#FEFEFE"/>
<path d="M141.999 190.663C141.422 191.24 141.422 192.176 141.999 192.753C142.576 193.33 143.512 193.33 144.089 192.753C144.666 192.176 144.666 191.24 144.089 190.663C143.512 190.086 142.576 190.086 141.999 190.663Z" fill="#FEFEFE"/>
<path d="M126.219 206.443C125.642 207.02 125.642 207.956 126.219 208.533C126.796 209.11 127.732 209.11 128.309 208.533C128.886 207.956 128.886 207.02 128.309 206.443C127.732 205.866 126.796 205.866 126.219 206.443Z" fill="#FEFEFE"/>
<path d="M110.424 222.238C109.847 222.815 109.847 223.751 110.424 224.328C111.001 224.905 111.937 224.905 112.514 224.328C113.091 223.751 113.091 222.815 112.514 222.238C111.937 221.661 111.001 221.661 110.424 222.238Z" fill="#FEFEFE"/>
<path d="M94.6331 240.119C94.0525 239.538 94.0525 238.609 94.6331 238.029C95.2137 237.448 96.1427 237.448 96.7234 238.029C97.304 238.609 97.304 239.538 96.7234 240.119C96.1534 240.689 95.2138 240.7 94.6331 240.119Z" fill="#FEFEFE"/>
<path d="M137.871 172.832C137.29 172.251 137.29 171.322 137.871 170.742C138.451 170.161 139.38 170.161 139.961 170.742C140.542 171.322 140.542 172.251 139.961 172.832C139.381 173.412 138.441 173.402 137.871 172.832Z" fill="#FEFEFE"/>
<path d="M122.091 186.522C121.514 187.099 121.514 188.035 122.091 188.612C122.668 189.189 123.604 189.189 124.181 188.612C124.758 188.035 124.758 187.099 124.181 186.522C123.604 185.944 122.668 185.944 122.091 186.522Z" fill="#FEFEFE"/>
<path d="M106.298 202.315C105.721 202.892 105.721 203.828 106.298 204.405C106.875 204.982 107.811 204.982 108.388 204.405C108.965 203.828 108.965 202.892 108.388 202.315C107.811 201.737 106.875 201.738 106.298 202.315Z" fill="#FEFEFE"/>
<path d="M90.507 220.196C89.9263 219.615 89.9263 218.686 90.5069 218.105C91.0875 217.525 92.0165 217.525 92.5972 218.105C93.1778 218.686 93.1778 219.615 92.5972 220.196C92.0272 220.766 91.0771 220.766 90.507 220.196Z" fill="#FEFEFE"/>
</g>
<g opacity="0.5">
<path d="M227.218 171.694L220.514 173.489L225.424 178.399L227.218 171.694Z" fill="white"/>
<path d="M232.128 176.604L225.424 178.399L230.334 183.309L232.128 176.604Z" fill="white"/>
<path d="M237.038 181.514L230.333 183.308L235.243 188.218L237.038 181.514Z" fill="white"/>
<path d="M241.953 186.429L235.243 188.218L240.159 193.134L241.953 186.429Z" fill="white"/>
</g>
<g opacity="0.5">
<path d="M225.423 178.399L218.713 180.2L223.623 185.11L225.423 178.399Z" fill="white"/>
<path d="M230.333 183.309L223.623 185.11L228.533 190.019L230.333 183.309Z" fill="white"/>
<path d="M235.243 188.219L228.533 190.019L233.448 194.935L235.243 188.219Z" fill="white"/>
</g>
<g opacity="0.5">
<path d="M218.712 180.2L212.002 182.001L216.912 186.91L218.712 180.2Z" fill="white"/>
<path d="M223.622 185.11L216.912 186.911L221.822 191.82L223.622 185.11Z" fill="white"/>
<path d="M228.532 190.02L221.822 191.82L226.732 196.73L228.532 190.02Z" fill="white"/>
<path d="M233.447 194.936L226.732 196.73L231.647 201.646L233.447 194.936Z" fill="white"/>
</g>
<g opacity="0.5">
<path d="M216.912 186.911L210.207 188.705L215.117 193.615L216.912 186.911Z" fill="white"/>
<path d="M221.822 191.821L215.117 193.615L220.027 198.525L221.822 191.821Z" fill="white"/>
<path d="M226.732 196.73L220.027 198.524L224.943 203.44L226.732 196.73Z" fill="white"/>
</g>
<path opacity="0.5" d="M283.61 153.989C281.089 160.181 275.104 157.862 272.583 164.065C270.062 170.257 276.048 172.577 273.527 178.769C271.006 184.96 265.02 182.641 262.499 188.844C259.979 195.036 265.964 197.356 263.443 203.548C260.922 209.74 254.931 207.426 252.416 213.623" stroke="white" stroke-width="2" stroke-miterlimit="10"/>
<path opacity="0.5" d="M174.494 331.7L198.74 241.215L264.98 307.455L174.494 331.7Z" fill="#F2F2F2"/>
<path opacity="0.5" d="M98.6047 179.324L136.488 37.9409L239.988 141.441L98.6047 179.324Z" fill="#F2F2F2"/>
</svg>
