<svg width="271" height="271" viewBox="0 0 271 271" fill="none" xmlns="http://www.w3.org/2000/svg">
<circle opacity="0.5" cx="135.5" cy="135.5" r="135.5" transform="rotate(90 135.5 135.5)" fill="#6A6E71"/>
<path d="M76.5 114L70 125L83 125L76.5 114Z" fill="white"/>
<path d="M89.5 114L83 125L96 125L89.5 114Z" fill="white"/>
<path d="M102.5 114L96 125L109 125L102.5 114Z" fill="white"/>
<path d="M115.007 114L109 125L121 125L115.007 114Z" fill="white"/>
<path d="M83 125L77 136L89 136L83 125Z" fill="white"/>
<path d="M95.5 125L89 136L102 136L95.5 125Z" fill="white"/>
<path d="M108.492 125L102 136L115 136L108.492 125Z" fill="white"/>
<path d="M76.5 136L70 147L83 147L76.5 136Z" fill="white"/>
<path d="M89.5 136L83 147L96 147L89.5 136Z" fill="white"/>
<path d="M102.5 136L96 147L109 147L102.5 136Z" fill="white"/>
<path d="M115.007 136L109 147L121 147L115.007 136Z" fill="white"/>
<path opacity="0.5" d="M127.495 17C132.273 28.3192 121.463 33.082 126.256 44.4163C131.034 55.7355 141.845 50.9727 146.623 62.2919C151.401 73.6111 140.591 78.3739 145.384 89.7081C150.162 101.027 160.972 96.2645 165.751 107.584C170.529 118.903 159.719 123.681 164.512 135" stroke="white" stroke-width="2" stroke-miterlimit="10"/>
</svg>
