<svg width="64" height="64" viewBox="0 0 64 64" fill="none" xmlns="http://www.w3.org/2000/svg">
<path d="M4.98654 23.504C4.98654 21.0961 5.94322 18.787 7.64551 17.0846C9.34832 15.3818 11.657 14.4257 14.0648 14.4257C16.4726 14.4257 18.7814 15.3819 20.4842 17.0846C22.1865 18.787 23.1431 21.0961 23.1431 23.504C23.1431 25.9113 22.1864 28.2205 20.4842 29.9228C18.7814 31.6256 16.4726 32.5818 14.0648 32.5818C11.658 32.5795 9.35056 31.6219 7.6487 29.9201C5.94683 28.2182 4.98926 25.9109 4.98654 23.504ZM24.5451 35.8674L23.9705 35.4061C22.2695 34.0448 20.1562 33.302 17.9774 33.2993C17.4649 33.2993 16.9709 33.4896 16.5912 33.8333C16.2115 34.1776 15.9732 34.6504 15.9225 35.1601C15.8599 35.7794 15.4926 36.3269 14.9428 36.62C14.3935 36.9126 13.7345 36.9126 13.1853 36.62C12.636 36.3269 12.2687 35.7794 12.2055 35.1601C12.1553 34.6504 11.9171 34.1776 11.5373 33.8333C11.1576 33.4896 10.6636 33.2993 10.1512 33.2993C7.97234 33.302 5.85947 34.0453 4.15855 35.4066L3.58389 35.8674C1.31293 37.6808 -0.00646464 40.431 2.38198e-05 43.3369V47.5097C2.38198e-05 48.0572 0.21754 48.5825 0.60463 48.9696C0.991719 49.3567 1.51707 49.5742 2.06453 49.5742H26.0647C26.6122 49.5742 27.1376 49.3567 27.5246 48.9696C27.9117 48.5825 28.1292 48.0572 28.1292 47.5097V43.3369C28.1357 40.4309 26.8161 37.6808 24.5451 35.8674ZM42.9676 9.03234C43.7054 9.03234 44.3869 8.63879 44.7556 8.00008C45.1242 7.36137 45.1242 6.57427 44.7556 5.93557C44.3869 5.29687 43.7054 4.90332 42.9676 4.90332C40.128 4.90655 37.4058 6.03604 35.3981 8.04338C33.3906 10.0513 32.2612 12.7733 32.258 15.6129V29.9359H29.8064C29.0686 29.9359 28.3871 30.3294 28.0184 30.9682C27.6498 31.6069 27.6498 32.394 28.0184 33.0327C28.3871 33.6714 29.0687 34.0649 29.8064 34.0649H32.258V48.3879C32.2612 51.2275 33.3907 53.9497 35.3981 55.9574C37.4059 57.9648 40.128 59.0943 42.9676 59.0975C43.7054 59.0975 44.3869 58.7039 44.7556 58.0652C45.1242 57.4265 45.1242 56.6394 44.7556 56.0007C44.3869 55.362 43.7054 54.9685 42.9676 54.9685C41.2229 54.9666 39.5501 54.2726 38.3164 53.039C37.0828 51.8055 36.3888 50.1326 36.387 48.3879V34.0649H42.9676C43.7054 34.0649 44.3869 33.6714 44.7556 33.0327C45.1242 32.3939 45.1242 31.6069 44.7556 30.9682C44.3869 30.3295 43.7054 29.9359 42.9676 29.9359H36.387V15.6129C36.3889 13.8682 37.0829 12.1954 38.3164 10.9618C39.55 9.72814 41.2229 9.03411 42.9676 9.03234ZM57.0322 50.0644C55.1843 50.0644 53.4119 50.7985 52.1055 52.1054C50.7986 53.4118 50.0644 55.1842 50.0644 57.0322C50.0644 58.8801 50.7985 60.6525 52.1055 61.9589C53.4119 63.2658 55.1843 63.9999 57.0322 63.9999C58.8801 63.9999 60.6525 63.2658 61.959 61.9589C63.2659 60.6525 64 58.8801 64 57.0322C63.9977 55.1847 63.2631 53.4137 61.9567 52.1078C60.6508 50.8014 58.8797 50.0666 57.0322 50.0644ZM57.0322 25.0319C55.1843 25.0319 53.4119 25.766 52.1055 27.073C50.7986 28.3794 50.0644 30.1518 50.0644 31.9997C50.0644 33.8476 50.7985 35.62 52.1055 36.9264C53.4119 38.2333 55.1843 38.9675 57.0322 38.9675C58.8801 38.9675 60.6525 38.2334 61.959 36.9264C63.2659 35.62 64 33.8476 64 31.9997C63.9977 30.1523 63.2631 28.3813 61.9567 27.0753C60.6508 25.7689 58.8797 25.0342 57.0322 25.0319Z" fill="#161616"/>
<path d="M61.959 11.8945C60.6526 13.2014 58.8801 13.9355 57.0322 13.9355C55.1848 13.9333 53.4137 13.1986 52.1077 11.8922C50.8013 10.5862 50.0668 8.81521 50.0645 6.96777C50.0645 5.11986 50.7986 3.34745 52.1055 2.04103C53.4119 0.734104 55.1843 0 57.0322 0C58.8801 0 60.6526 0.734139 61.959 2.04103C63.2659 3.34745 64 5.11986 64 6.96777C64 8.81569 63.2659 10.5881 61.959 11.8945Z" fill="#FFC857"/>
</svg>
