<svg width="224" height="300" viewBox="0 0 224 300" fill="none" xmlns="http://www.w3.org/2000/svg">
<circle opacity="0.5" cx="139.493" cy="201.972" r="73.5211" transform="rotate(-180 139.493 201.972)" fill="#6A6E71"/>
<g opacity="0.3">
<path d="M98.5088 192.888C98.5088 192.067 99.1657 191.41 99.9868 191.41C100.808 191.41 101.465 192.067 101.465 192.888C101.465 193.709 100.808 194.366 99.9868 194.366C99.1657 194.381 98.5088 193.709 98.5088 192.888Z" fill="#FEFEFE"/>
<path d="M77.6525 191.41C76.8363 191.41 76.1745 192.072 76.1745 192.888C76.1745 193.704 76.8363 194.366 77.6525 194.366C78.4687 194.366 79.1304 193.704 79.1304 192.888C79.1304 192.072 78.4687 191.41 77.6525 191.41Z" fill="#FEFEFE"/>
<path d="M55.3363 191.41C54.5201 191.41 53.8584 192.072 53.8584 192.888C53.8584 193.704 54.5201 194.366 55.3363 194.366C56.1525 194.366 56.8142 193.704 56.8142 192.888C56.8142 192.072 56.1525 191.41 55.3363 191.41Z" fill="#FEFEFE"/>
<path d="M32.9987 191.41C32.1825 191.41 31.5208 192.072 31.5208 192.888C31.5208 193.704 32.1825 194.366 32.9987 194.366C33.815 194.366 34.4767 193.704 34.4767 192.888C34.4767 192.072 33.815 191.41 32.9987 191.41Z" fill="#FEFEFE"/>
<path d="M9.1891 192.888C9.1891 192.067 9.84606 191.41 10.6672 191.41C11.4882 191.41 12.1451 192.067 12.1451 192.888C12.1451 193.709 11.4882 194.366 10.6672 194.366C9.86098 194.381 9.1891 193.709 9.1891 192.888Z" fill="#FEFEFE"/>
<path d="M87.3421 175.883C87.3421 175.061 87.9989 174.404 88.82 174.404C89.641 174.404 90.2979 175.061 90.2979 175.883C90.2979 176.704 89.641 177.361 88.82 177.361C87.9989 177.376 87.3421 176.704 87.3421 175.883Z" fill="#FEFEFE"/>
<path d="M66.5038 174.404C65.6875 174.404 65.0259 175.066 65.0259 175.883C65.0259 176.699 65.6875 177.361 66.5038 177.361C67.3201 177.361 67.9818 176.699 67.9818 175.883C67.9818 175.066 67.3201 174.404 66.5038 174.404Z" fill="#FEFEFE"/>
<path d="M44.1689 174.404C43.3526 174.404 42.6909 175.066 42.6909 175.883C42.6909 176.699 43.3526 177.361 44.1689 177.361C44.9851 177.361 45.6469 176.699 45.6469 175.883C45.6469 175.066 44.9851 174.404 44.1689 174.404Z" fill="#FEFEFE"/>
<path d="M20.3593 175.883C20.3593 175.061 21.0162 174.404 21.8373 174.404C22.6585 174.404 23.3153 175.061 23.3153 175.883C23.3153 176.704 22.6585 177.361 21.8373 177.361C21.0311 177.376 20.3593 176.704 20.3593 175.883Z" fill="#FEFEFE"/>
</g>
<g opacity="0.3">
<path d="M98.5088 158.787C98.5088 157.966 99.1657 157.309 99.9868 157.309C100.808 157.309 101.465 157.966 101.465 158.787C101.465 159.608 100.808 160.265 99.9868 160.265C99.1657 160.265 98.5088 159.608 98.5088 158.787Z" fill="#FEFEFE"/>
<path d="M77.6525 157.309C76.8363 157.309 76.1745 157.971 76.1745 158.787C76.1745 159.604 76.8363 160.265 77.6525 160.265C78.4687 160.265 79.1304 159.604 79.1304 158.787C79.1304 157.971 78.4687 157.309 77.6525 157.309Z" fill="#FEFEFE"/>
<path d="M55.3363 157.309C54.5201 157.309 53.8584 157.971 53.8584 158.787C53.8584 159.604 54.5201 160.265 55.3363 160.265C56.1525 160.265 56.8142 159.604 56.8142 158.787C56.8142 157.971 56.1525 157.309 55.3363 157.309Z" fill="#FEFEFE"/>
<path d="M32.9987 157.309C32.1825 157.309 31.5208 157.971 31.5208 158.787C31.5208 159.604 32.1825 160.265 32.9987 160.265C33.815 160.265 34.4767 159.604 34.4767 158.787C34.4767 157.971 33.815 157.309 32.9987 157.309Z" fill="#FEFEFE"/>
<path d="M9.1891 158.787C9.1891 157.966 9.84606 157.309 10.6672 157.309C11.4882 157.309 12.1451 157.966 12.1451 158.787C12.1451 159.608 11.4882 160.265 10.6672 160.265C9.86098 160.265 9.1891 159.608 9.1891 158.787Z" fill="#FEFEFE"/>
<path d="M87.3421 141.782C87.3421 140.961 87.9989 140.304 88.82 140.304C89.641 140.304 90.2979 140.961 90.2979 141.782C90.2979 142.603 89.641 143.26 88.82 143.26C87.9989 143.26 87.3421 142.603 87.3421 141.782Z" fill="#FEFEFE"/>
<path d="M66.5038 140.304C65.6875 140.304 65.0259 140.966 65.0259 141.782C65.0259 142.598 65.6875 143.26 66.5038 143.26C67.3201 143.26 67.9818 142.598 67.9818 141.782C67.9818 140.966 67.3201 140.304 66.5038 140.304Z" fill="#FEFEFE"/>
<path d="M44.1689 140.304C43.3526 140.304 42.6909 140.966 42.6909 141.782C42.6909 142.598 43.3526 143.26 44.1689 143.26C44.9851 143.26 45.6469 142.598 45.6469 141.782C45.6469 140.966 44.9851 140.304 44.1689 140.304Z" fill="#FEFEFE"/>
<path d="M20.3593 141.782C20.3593 140.961 21.0162 140.304 21.8373 140.304C22.6585 140.304 23.3153 140.961 23.3153 141.782C23.3153 142.603 22.6585 143.26 21.8373 143.26C21.0311 143.26 20.3593 142.603 20.3593 141.782Z" fill="#FEFEFE"/>
</g>
<g opacity="0.3">
<path d="M98.5088 124.687C98.5088 123.866 99.1657 123.209 99.9868 123.209C100.808 123.209 101.465 123.866 101.465 124.687C101.465 125.508 100.808 126.165 99.9868 126.165C99.1657 126.165 98.5088 125.508 98.5088 124.687Z" fill="#FEFEFE"/>
<path d="M77.6525 123.209C76.8363 123.209 76.1745 123.871 76.1745 124.687C76.1745 125.504 76.8363 126.165 77.6525 126.165C78.4687 126.165 79.1304 125.504 79.1304 124.687C79.1304 123.871 78.4687 123.209 77.6525 123.209Z" fill="#FEFEFE"/>
<path d="M55.3363 123.209C54.5201 123.209 53.8584 123.871 53.8584 124.687C53.8584 125.504 54.5201 126.165 55.3363 126.165C56.1525 126.165 56.8142 125.504 56.8142 124.687C56.8142 123.871 56.1525 123.209 55.3363 123.209Z" fill="#FEFEFE"/>
<path d="M32.9987 123.209C32.1825 123.209 31.5208 123.871 31.5208 124.687C31.5208 125.504 32.1825 126.165 32.9987 126.165C33.815 126.165 34.4767 125.504 34.4767 124.687C34.4767 123.871 33.815 123.209 32.9987 123.209Z" fill="#FEFEFE"/>
<path d="M9.1891 124.687C9.1891 123.866 9.84606 123.209 10.6672 123.209C11.4882 123.209 12.1451 123.866 12.1451 124.687C12.1451 125.508 11.4882 126.165 10.6672 126.165C9.86098 126.165 9.1891 125.508 9.1891 124.687Z" fill="#FEFEFE"/>
<path d="M87.3421 107.682C87.3421 106.861 87.9989 106.204 88.82 106.204C89.641 106.204 90.2979 106.861 90.2979 107.682C90.2979 108.503 89.641 109.16 88.82 109.16C87.9989 109.16 87.3421 108.488 87.3421 107.682Z" fill="#FEFEFE"/>
<path d="M66.5038 106.204C65.6875 106.204 65.0259 106.866 65.0259 107.682C65.0259 108.498 65.6875 109.16 66.5038 109.16C67.3201 109.16 67.9818 108.498 67.9818 107.682C67.9818 106.866 67.3201 106.204 66.5038 106.204Z" fill="#FEFEFE"/>
<path d="M44.1689 106.204C43.3526 106.204 42.6909 106.866 42.6909 107.682C42.6909 108.498 43.3526 109.16 44.1689 109.16C44.9851 109.16 45.6469 108.498 45.6469 107.682C45.6469 106.866 44.9851 106.204 44.1689 106.204Z" fill="#FEFEFE"/>
<path d="M20.3593 107.682C20.3593 106.861 21.0162 106.204 21.8373 106.204C22.6585 106.204 23.3153 106.861 23.3153 107.682C23.3153 108.503 22.6585 109.16 21.8373 109.16C21.0311 109.16 20.3593 108.488 20.3593 107.682Z" fill="#FEFEFE"/>
</g>
<g opacity="0.5">
<path d="M151.324 170.056L145.315 166.584L145.315 173.528L151.324 170.056Z" fill="white"/>
<path d="M151.324 176.999L145.315 173.528L145.315 180.471L151.324 176.999Z" fill="white"/>
<path d="M151.324 183.943L145.315 180.471L145.315 187.415L151.324 183.943Z" fill="white"/>
<path d="M151.324 190.894L145.315 187.415L145.315 194.366L151.324 190.894Z" fill="white"/>
</g>
<g opacity="0.5">
<path d="M145.314 173.527L139.296 170.056L139.296 176.999L145.314 173.527Z" fill="white"/>
<path d="M145.314 180.471L139.296 176.999L139.296 183.943L145.314 180.471Z" fill="white"/>
<path d="M145.314 187.414L139.296 183.943L139.296 190.894L145.314 187.414Z" fill="white"/>
</g>
<g opacity="0.5">
<path d="M139.295 170.056L133.277 166.584L133.277 173.528L139.295 170.056Z" fill="white"/>
<path d="M139.295 176.999L133.277 173.528L133.277 180.471L139.295 176.999Z" fill="white"/>
<path d="M139.295 183.943L133.277 180.471L133.277 187.415L139.295 183.943Z" fill="white"/>
<path d="M139.295 190.894L133.277 187.415L133.277 194.366L139.295 190.894Z" fill="white"/>
</g>
<g opacity="0.5">
<path d="M133.277 173.527L127.268 170.056L127.268 176.999L133.277 173.527Z" fill="white"/>
<path d="M133.277 180.471L127.268 176.999L127.268 183.943L133.277 180.471Z" fill="white"/>
<path d="M133.277 187.414L127.268 183.943L127.268 190.894L133.277 187.414Z" fill="white"/>
</g>
<path opacity="0.5" d="M203.719 197.412C197.558 200.008 194.966 194.135 188.797 196.739C182.636 199.335 185.228 205.207 179.067 207.803C172.906 210.399 170.314 204.526 164.145 207.13C157.984 209.726 160.577 215.599 154.416 218.194C148.255 220.79 145.654 214.918 139.493 217.521" stroke="white" stroke-width="2" stroke-miterlimit="10"/>
<path opacity="0.5" d="M0.901893 245.915L82.0287 199.077L82.0286 292.754L0.901893 245.915Z" fill="#F2F2F2"/>
<path opacity="0.5" d="M54.9859 84.5071L181.747 11.3219L181.746 157.692L54.9859 84.5071Z" fill="#F2F2F2"/>
</svg>
