<svg width="43" height="49" viewBox="0 0 43 49" fill="none" xmlns="http://www.w3.org/2000/svg">
<path d="M13.3419 2.5896C13.3419 2.5896 11.0005 22.6063 1.9248 36.1327C1.9248 36.1327 13.9019 25.3846 14.9784 36.0673C14.9784 36.0673 18.4289 25.8106 13.3419 2.5896Z" stroke="white" stroke-width="0.15" stroke-miterlimit="10"/>
<path d="M14.3203 1.28003C16.4067 8.62667 20.5033 29.1369 14.7266 40.7349C14.7266 40.7349 20.3747 39.7794 25.7395 37.524C33.9044 34.091 39.9937 28.9713 42.1978 34.943C44.6547 41.5978 14.3203 1.28003 14.3203 1.28003Z" stroke="white" stroke-width="0.15" stroke-miterlimit="10"/>
<path d="M12.885 39.3747C14.2732 37.8182 14.099 35.3973 12.4958 33.9675C10.8927 32.5376 8.4677 32.6402 7.07949 34.1967C5.69128 35.7531 5.86553 38.174 7.46868 39.6039C9.07183 41.0337 11.4968 40.9311 12.885 39.3747Z" stroke="white" stroke-width="0.15" stroke-miterlimit="10"/>
<path d="M37.2895 34.5856V34.6673C38.2243 34.6673 38.8246 34.9342 39.1275 35.4822C39.5099 36.1774 39.4032 37.3519 38.8094 38.9742C38.1546 40.761 36.8853 43.1525 35.0353 46.0822C33.8477 47.9638 31.5989 48.9182 28.3511 48.9182C25.6076 48.9182 22.1059 48.2122 18.225 46.8775C15.0327 45.7793 11.5931 44.2583 8.50869 42.5805C9.3182 42.5478 10.192 42.489 11.1116 42.4051C13.0498 42.2296 21.9654 40.4167 26.8464 38.2267C31.1903 36.2787 34.9743 34.6662 37.2906 34.6662V34.5845M1.18275 37.135C1.18601 37.1645 1.19037 37.1961 1.198 37.2277C1.43116 38.2583 4.05472 40.2914 7.90836 42.4377C7.58804 42.4465 7.27535 42.4508 6.97573 42.4508C3.08505 42.4508 0.815576 41.7568 0.229414 40.3884C-0.295735 39.1626 0.720788 37.707 1.18275 37.1361M37.2906 34.5856C34.8816 34.5856 30.7872 36.3713 26.8126 38.1537C21.8619 40.3742 12.9005 42.1621 11.1039 42.3244C10.046 42.4203 9.08395 42.4802 8.20907 42.5107C14.0249 45.7107 22.3173 48.9999 28.3511 48.9999C31.3592 48.9999 33.8074 48.1817 35.105 46.1258C40.6714 37.3094 40.2661 34.5856 37.2906 34.5856ZM1.33528 36.8332C1.33528 36.8332 -4.1047 42.5325 6.97573 42.5325C7.36578 42.5325 7.77544 42.526 8.20907 42.5107C3.74857 40.0571 0.745847 37.6558 1.33637 36.8332H1.33528Z" fill="white"/>
<path d="M13.7623 2.17017C13.7623 2.17017 11.4209 22.1869 2.34521 35.7133C2.34521 35.7133 14.3223 24.9651 15.3988 35.6479C15.3988 35.6479 18.8493 25.3911 13.7623 2.17017Z" fill="white"/>
<path d="M13.7624 1C15.8488 8.34664 19.9454 28.8569 14.1688 40.4548C14.1688 40.4548 19.8169 39.4993 25.1817 37.244C33.3465 33.8109 39.4359 28.6913 41.64 34.6629C44.0979 41.3177 13.7624 1 13.7624 1Z" fill="white"/>
<path d="M13.4456 38.6762C14.8338 37.1197 14.6595 34.6989 13.0564 33.269C11.4532 31.8391 9.02825 31.9418 7.64004 33.4982C6.25183 35.0547 6.42608 37.4755 8.02923 38.9054C9.63238 40.3353 12.0574 40.2326 13.4456 38.6762Z" fill="#FFA800"/>
<path d="M1.89532 36.5543C1.89532 36.5543 -4.76602 43.5316 11.6629 42.0455C13.4595 41.8832 22.4208 40.0953 27.3716 37.8748C36.2566 33.8904 45.7366 29.893 35.6639 45.8479C29.7685 55.1862 0.150993 38.9861 1.89532 36.5554V36.5543Z" fill="white"/>
</svg>
