<svg width="143" height="29" viewBox="0 0 143 29" fill="none" xmlns="http://www.w3.org/2000/svg">
<path d="M79.5941 8.80841C79.5271 7.28877 79.2814 6.24404 78.9294 5.33876C78.5662 4.37784 78.0075 3.51752 77.2755 2.80233C76.5603 2.07602 75.6943 1.51164 74.7445 1.15415C73.834 0.802126 72.7947 0.556383 71.2751 0.489382C69.7441 0.416707 69.2581 0.399902 65.3751 0.399902C61.4921 0.399902 61.0061 0.416707 59.4808 0.483708C57.9611 0.550709 56.9164 0.79667 56.0113 1.14848C55.0502 1.51164 54.1899 2.07034 53.4747 2.80233C52.7484 3.51752 52.1842 4.38351 51.8265 5.33331C51.4745 6.24404 51.2287 7.2831 51.1617 8.80273C51.0891 10.3337 51.0723 10.8197 51.0723 14.7027C51.0723 18.5857 51.0891 19.0718 51.1561 20.5971C51.2231 22.1167 51.469 23.1614 51.8211 24.0667C52.1842 25.0276 52.7484 25.888 53.4747 26.6031C54.1899 27.3295 55.0559 27.8938 56.0057 28.2513C56.9164 28.6034 57.9555 28.8491 59.4753 28.9161C61.0004 28.9833 61.4867 28.9999 65.3696 28.9999C69.2526 28.9999 69.7387 28.9833 71.264 28.9161C72.7836 28.8491 73.8283 28.6034 74.7334 28.2513C76.6555 27.5082 78.1751 25.9886 78.9182 24.0667C79.27 23.156 79.516 22.1167 79.583 20.5971C79.65 19.0718 79.6668 18.5857 79.6668 14.7027C79.6668 10.8197 79.6611 10.3337 79.5941 8.80841ZM77.0186 20.4853C76.9571 21.8821 76.7225 22.6363 76.5269 23.1392C76.0464 24.3851 75.0575 25.374 73.8115 25.8546C73.3087 26.0501 72.549 26.2847 71.1577 26.3461C69.6492 26.4133 69.1968 26.4299 65.3808 26.4299C61.5648 26.4299 61.1067 26.4133 59.6036 26.3461C58.2069 26.2847 57.4526 26.0501 56.9498 25.8546C56.3298 25.6254 55.7654 25.2623 55.3073 24.7874C54.8324 24.3236 54.4692 23.7649 54.2401 23.1449C54.0445 22.642 53.8099 21.8821 53.7486 20.491C53.6814 18.9825 53.6648 18.5299 53.6648 14.7139C53.6648 10.8979 53.6814 10.4398 53.7486 8.93695C53.8099 7.54019 54.0445 6.78594 54.2401 6.28311C54.4692 5.66286 54.8324 5.0987 55.313 4.64038C55.7765 4.16548 56.3352 3.80233 56.9555 3.57339C57.4583 3.37784 58.2182 3.14323 59.6093 3.08168C61.1178 3.01468 61.5705 2.99788 65.3862 2.99788C69.2079 2.99788 69.6603 3.01468 71.1634 3.08168C72.5601 3.14323 73.3144 3.37784 73.8172 3.57339C74.4372 3.80233 75.0016 4.16548 75.4597 4.64038C75.9346 5.10415 76.2978 5.66286 76.5269 6.28311C76.7225 6.78594 76.9571 7.54565 77.0186 8.93695C77.0856 10.4455 77.1024 10.8979 77.1024 14.7139C77.1024 18.5299 77.0856 18.9768 77.0186 20.4853Z" fill="#E4E4E4"/>
<path d="M65.3737 7.35571C61.3176 7.35571 58.0267 10.6464 58.0267 14.7027C58.0267 18.759 61.3176 22.0496 65.3737 22.0496C69.43 22.0496 72.7207 18.759 72.7207 14.7027C72.7207 10.6464 69.43 7.35571 65.3737 7.35571ZM65.3737 19.4685C62.7423 19.4685 60.6079 17.3343 60.6079 14.7027C60.6079 12.0711 62.7423 9.93688 65.3737 9.93688C68.0053 9.93688 70.1395 12.0711 70.1395 14.7027C70.1395 17.3343 68.0053 19.4685 65.3737 19.4685Z" fill="#E4E4E4"/>
<path d="M74.7239 7.06528C74.7239 8.01246 73.9559 8.78046 73.0085 8.78046C72.0613 8.78046 71.2933 8.01246 71.2933 7.06528C71.2933 6.11788 72.0613 5.3501 73.0085 5.3501C73.9559 5.3501 74.7239 6.11788 74.7239 7.06528Z" fill="#E4E4E4"/>
<path d="M29 14.5C29 6.49102 22.509 0 14.5 0C6.49102 0 0 6.49102 0 14.5C0 22.509 6.49102 29 14.5 29C14.585 29 14.6699 29 14.7549 28.9943V17.7115H11.6396V14.0809H14.7549V11.4074C14.7549 8.30918 16.6467 6.62129 19.4107 6.62129C20.7361 6.62129 21.8746 6.71758 22.2031 6.76289V10.0027H20.3C18.799 10.0027 18.5045 10.7164 18.5045 11.7643V14.0752H22.1012L21.6311 17.7059H18.5045V28.4393C24.565 26.7004 29 21.1213 29 14.5Z" fill="#E4E4E4"/>
<path d="M142.155 4.53781C141.683 2.76339 140.298 1.36463 138.542 0.886832C135.333 0 122.5 0 122.5 0C122.5 0 109.666 0 106.458 0.853209C104.735 1.3305 103.317 2.76364 102.844 4.53781C102 7.77874 102 14.5 102 14.5C102 14.5 102 21.2551 102.844 24.4622C103.317 26.2364 104.702 27.6351 106.458 28.1129C109.7 29 122.5 29 122.5 29C122.5 29 135.333 29 138.542 28.1468C140.298 27.6692 141.683 26.2705 142.156 24.4963C143 21.2551 143 14.5341 143 14.5341C143 14.5341 143.034 7.77874 142.155 4.53781ZM118.414 20.7093V8.29066L129.085 14.5L118.414 20.7093Z" fill="#E4E4E4"/>
</svg>
