<svg width="65" height="64" viewBox="0 0 65 64" fill="none" xmlns="http://www.w3.org/2000/svg">
<path d="M40.3468 32.0002C40.3468 36.2415 36.9081 39.6802 32.6669 39.6802C28.4256 39.6802 24.9869 36.2415 24.9869 32.0002C24.9869 27.759 28.4256 24.3203 32.6669 24.3203C36.9081 24.3203 40.3468 27.759 40.3468 32.0002Z" fill="#FFC857"/>
<path d="M63.3866 30.72H56.0904C55.4504 18.8165 45.8505 9.21623 33.9466 8.57623V1.27999C33.9466 0.511867 33.4347 0 32.6666 0C31.8985 0 31.3866 0.511867 31.3866 1.27999V8.57623C19.4831 9.21623 9.88285 18.8161 9.24286 30.72H1.94661C1.17849 30.72 0.666626 31.2319 0.666626 32C0.666626 32.7681 1.17849 33.28 1.94661 33.28H9.24286C9.88285 45.1835 19.4828 54.7838 31.3866 55.4238V62.72C31.3866 63.4881 31.8985 64 32.6666 64C33.4347 64 33.9466 63.4881 33.9466 62.72V55.4238C45.8502 54.7838 55.4504 45.1839 56.0904 33.28H63.3866C64.1548 33.28 64.6666 32.7681 64.6666 32C64.6666 31.2319 64.1548 30.72 63.3866 30.72ZM46.7468 33.28H53.6586C53.0186 43.7762 44.5705 52.2238 34.0748 52.8638V46.0802C34.0748 45.3121 33.5629 44.8002 32.7948 44.8002C32.0267 44.8002 31.5148 45.3121 31.5148 46.0802V52.9919C21.0186 52.352 12.571 43.9039 11.931 33.4081H18.5866C19.3547 33.4081 19.8666 32.8963 19.8666 32.1282C19.8666 31.36 19.3547 30.8482 18.5866 30.8482H11.6748C12.3148 20.352 20.7629 11.9044 31.2586 11.2644V17.92C31.2586 18.6881 31.7705 19.2 32.5386 19.2C33.3067 19.2 33.8186 18.6881 33.8186 17.92V11.0082C44.3148 11.6482 52.7624 20.0963 53.4024 30.592H46.7468C45.9787 30.592 45.4668 31.1039 45.4668 31.872C45.4668 32.6401 45.9787 33.2801 46.7468 33.2801V33.28Z" fill="black"/>
</svg>
