<svg width="224" height="300" viewBox="0 0 224 300" fill="none" xmlns="http://www.w3.org/2000/svg">
<circle opacity="0.5" cx="84.5065" cy="98.0282" r="73.5211" fill="#6A6E71"/>
<g opacity="0.3">
<path d="M125.491 107.112C125.491 107.933 124.834 108.59 124.013 108.59C123.192 108.59 122.535 107.933 122.535 107.112C122.535 106.291 123.192 105.634 124.013 105.634C124.834 105.619 125.491 106.291 125.491 107.112Z" fill="#FEFEFE"/>
<path d="M146.347 108.59C147.163 108.59 147.825 107.928 147.825 107.112C147.825 106.296 147.163 105.634 146.347 105.634C145.531 105.634 144.869 106.296 144.869 107.112C144.869 107.928 145.531 108.59 146.347 108.59Z" fill="#FEFEFE"/>
<path d="M168.663 108.59C169.48 108.59 170.141 107.928 170.141 107.112C170.141 106.296 169.48 105.634 168.663 105.634C167.847 105.634 167.186 106.296 167.186 107.112C167.186 107.928 167.847 108.59 168.663 108.59Z" fill="#FEFEFE"/>
<path d="M191.001 108.59C191.818 108.59 192.479 107.928 192.479 107.112C192.479 106.296 191.818 105.634 191.001 105.634C190.185 105.634 189.523 106.296 189.523 107.112C189.523 107.928 190.185 108.59 191.001 108.59Z" fill="#FEFEFE"/>
<path d="M214.811 107.112C214.811 107.933 214.154 108.59 213.332 108.59C212.511 108.59 211.854 107.933 211.854 107.112C211.854 106.291 212.511 105.634 213.332 105.634C214.139 105.619 214.811 106.291 214.811 107.112Z" fill="#FEFEFE"/>
<path d="M136.658 124.118C136.658 124.939 136.001 125.596 135.18 125.596C134.359 125.596 133.702 124.939 133.702 124.118C133.702 123.296 134.359 122.639 135.18 122.639C136.001 122.625 136.658 123.296 136.658 124.118Z" fill="#FEFEFE"/>
<path d="M157.497 125.596C158.313 125.596 158.974 124.934 158.974 124.117C158.974 123.301 158.313 122.639 157.497 122.639C156.68 122.639 156.019 123.301 156.019 124.117C156.019 124.934 156.68 125.596 157.497 125.596Z" fill="#FEFEFE"/>
<path d="M179.832 125.596C180.648 125.596 181.309 124.934 181.309 124.117C181.309 123.301 180.648 122.639 179.832 122.639C179.015 122.639 178.354 123.301 178.354 124.117C178.354 124.934 179.015 125.596 179.832 125.596Z" fill="#FEFEFE"/>
<path d="M203.641 124.118C203.641 124.939 202.984 125.596 202.163 125.596C201.341 125.596 200.685 124.939 200.685 124.118C200.685 123.296 201.341 122.639 202.163 122.639C202.969 122.625 203.641 123.296 203.641 124.118Z" fill="#FEFEFE"/>
</g>
<g opacity="0.3">
<path d="M125.491 141.213C125.491 142.034 124.834 142.691 124.013 142.691C123.192 142.691 122.535 142.034 122.535 141.213C122.535 140.392 123.192 139.735 124.013 139.735C124.834 139.735 125.491 140.392 125.491 141.213Z" fill="#FEFEFE"/>
<path d="M146.347 142.691C147.163 142.691 147.825 142.029 147.825 141.213C147.825 140.396 147.163 139.735 146.347 139.735C145.531 139.735 144.869 140.396 144.869 141.213C144.869 142.029 145.531 142.691 146.347 142.691Z" fill="#FEFEFE"/>
<path d="M168.663 142.691C169.48 142.691 170.141 142.029 170.141 141.213C170.141 140.396 169.48 139.735 168.663 139.735C167.847 139.735 167.186 140.396 167.186 141.213C167.186 142.029 167.847 142.691 168.663 142.691Z" fill="#FEFEFE"/>
<path d="M191.001 142.691C191.818 142.691 192.479 142.029 192.479 141.213C192.479 140.396 191.818 139.735 191.001 139.735C190.185 139.735 189.523 140.396 189.523 141.213C189.523 142.029 190.185 142.691 191.001 142.691Z" fill="#FEFEFE"/>
<path d="M214.811 141.213C214.811 142.034 214.154 142.691 213.332 142.691C212.511 142.691 211.854 142.034 211.854 141.213C211.854 140.392 212.511 139.735 213.332 139.735C214.139 139.735 214.811 140.392 214.811 141.213Z" fill="#FEFEFE"/>
<path d="M136.658 158.218C136.658 159.039 136.001 159.696 135.18 159.696C134.359 159.696 133.702 159.039 133.702 158.218C133.702 157.397 134.359 156.74 135.18 156.74C136.001 156.74 136.658 157.397 136.658 158.218Z" fill="#FEFEFE"/>
<path d="M157.497 159.696C158.313 159.696 158.974 159.034 158.974 158.218C158.974 157.402 158.313 156.74 157.497 156.74C156.68 156.74 156.019 157.402 156.019 158.218C156.019 159.034 156.68 159.696 157.497 159.696Z" fill="#FEFEFE"/>
<path d="M179.832 159.696C180.648 159.696 181.309 159.034 181.309 158.218C181.309 157.402 180.648 156.74 179.832 156.74C179.015 156.74 178.354 157.402 178.354 158.218C178.354 159.034 179.015 159.696 179.832 159.696Z" fill="#FEFEFE"/>
<path d="M203.641 158.218C203.641 159.039 202.984 159.696 202.163 159.696C201.341 159.696 200.685 159.039 200.685 158.218C200.685 157.397 201.341 156.74 202.163 156.74C202.969 156.74 203.641 157.397 203.641 158.218Z" fill="#FEFEFE"/>
</g>
<g opacity="0.3">
<path d="M125.491 175.313C125.491 176.134 124.834 176.791 124.013 176.791C123.192 176.791 122.535 176.134 122.535 175.313C122.535 174.492 123.192 173.835 124.013 173.835C124.834 173.835 125.491 174.492 125.491 175.313Z" fill="#FEFEFE"/>
<path d="M146.347 176.791C147.163 176.791 147.825 176.129 147.825 175.313C147.825 174.496 147.163 173.835 146.347 173.835C145.531 173.835 144.869 174.496 144.869 175.313C144.869 176.129 145.531 176.791 146.347 176.791Z" fill="#FEFEFE"/>
<path d="M168.663 176.791C169.48 176.791 170.141 176.129 170.141 175.313C170.141 174.496 169.48 173.835 168.663 173.835C167.847 173.835 167.186 174.496 167.186 175.313C167.186 176.129 167.847 176.791 168.663 176.791Z" fill="#FEFEFE"/>
<path d="M191.001 176.791C191.818 176.791 192.479 176.129 192.479 175.313C192.479 174.496 191.818 173.835 191.001 173.835C190.185 173.835 189.523 174.496 189.523 175.313C189.523 176.129 190.185 176.791 191.001 176.791Z" fill="#FEFEFE"/>
<path d="M214.811 175.313C214.811 176.134 214.154 176.791 213.332 176.791C212.511 176.791 211.854 176.134 211.854 175.313C211.854 174.492 212.511 173.835 213.332 173.835C214.139 173.835 214.811 174.492 214.811 175.313Z" fill="#FEFEFE"/>
<path d="M136.658 192.318C136.658 193.139 136.001 193.796 135.18 193.796C134.359 193.796 133.702 193.139 133.702 192.318C133.702 191.497 134.359 190.84 135.18 190.84C136.001 190.84 136.658 191.512 136.658 192.318Z" fill="#FEFEFE"/>
<path d="M157.497 193.796C158.313 193.796 158.974 193.135 158.974 192.318C158.974 191.502 158.313 190.84 157.497 190.84C156.68 190.84 156.019 191.502 156.019 192.318C156.019 193.135 156.68 193.796 157.497 193.796Z" fill="#FEFEFE"/>
<path d="M179.832 193.796C180.648 193.796 181.309 193.135 181.309 192.318C181.309 191.502 180.648 190.84 179.832 190.84C179.015 190.84 178.354 191.502 178.354 192.318C178.354 193.135 179.015 193.796 179.832 193.796Z" fill="#FEFEFE"/>
<path d="M203.641 192.318C203.641 193.139 202.984 193.796 202.163 193.796C201.341 193.796 200.685 193.139 200.685 192.318C200.685 191.497 201.341 190.84 202.163 190.84C202.969 190.84 203.641 191.512 203.641 192.318Z" fill="#FEFEFE"/>
</g>
<g opacity="0.5">
<path d="M72.6758 129.944L78.6853 133.416V126.473L72.6758 129.944Z" fill="white"/>
<path d="M72.6758 123.001L78.6853 126.472V119.529L72.6758 123.001Z" fill="white"/>
<path d="M72.6758 116.057L78.6853 119.529V112.586L72.6758 116.057Z" fill="white"/>
<path d="M72.6758 109.106L78.6853 112.586V105.634L72.6758 109.106Z" fill="white"/>
</g>
<g opacity="0.5">
<path d="M78.6855 126.473L84.7033 129.944V123.001L78.6855 126.473Z" fill="white"/>
<path d="M78.6855 119.529L84.7033 123.001V116.057L78.6855 119.529Z" fill="white"/>
<path d="M78.6855 112.586L84.7033 116.057V109.106L78.6855 112.586Z" fill="white"/>
</g>
<g opacity="0.5">
<path d="M84.7051 129.944L90.7228 133.416V126.473L84.7051 129.944Z" fill="white"/>
<path d="M84.7051 123.001L90.7228 126.472V119.529L84.7051 123.001Z" fill="white"/>
<path d="M84.7051 116.057L90.7228 119.529V112.586L84.7051 116.057Z" fill="white"/>
<path d="M84.7051 109.106L90.7228 112.586V105.634L84.7051 109.106Z" fill="white"/>
</g>
<g opacity="0.5">
<path d="M90.7227 126.473L96.7322 129.944V123.001L90.7227 126.473Z" fill="white"/>
<path d="M90.7227 119.529L96.7322 123.001V116.057L90.7227 119.529Z" fill="white"/>
<path d="M90.7227 112.586L96.7322 116.057V109.106L90.7227 112.586Z" fill="white"/>
</g>
<path opacity="0.5" d="M20.2813 102.588C26.4421 99.9925 29.0344 105.865 35.2035 103.261C41.3643 100.666 38.772 94.7928 44.9328 92.197C51.0937 89.6012 53.686 95.4738 59.855 92.87C66.0159 90.2742 63.4236 84.4015 69.5844 81.8056C75.7452 79.2098 78.3458 85.0825 84.5066 82.4786" stroke="white" stroke-width="2" stroke-miterlimit="10"/>
<path opacity="0.5" d="M223.098 54.0845L141.971 100.923L141.971 7.24595L223.098 54.0845Z" fill="#F2F2F2"/>
<path opacity="0.5" d="M169.014 215.493L42.2531 288.678L42.2531 142.308L169.014 215.493Z" fill="#F2F2F2"/>
</svg>
