<svg width="90" height="90" viewBox="0 0 90 90" fill="none" xmlns="http://www.w3.org/2000/svg">
<path d="M83.365 63.3773L83.365 63.3773C80.6966 60.3671 76.6277 59.1451 72.7419 60.1862L66.8818 61.7564C62.3294 62.9763 57.6333 60.3112 56.3325 55.802L56.3221 55.766L56.3227 55.7286L56.4649 47.1667L56.4649 47.1665C56.4709 46.822 56.2885 46.5014 55.9902 46.3298L55.9898 46.3296L49.5587 42.6165L49.3675 42.5062L49.4533 42.3029L54.36 30.6729L54.3601 30.6727C54.5401 30.247 54.3876 29.7541 53.9984 29.5037L38.9914 19.8595L83.365 63.3773ZM83.365 63.3773L88.3312 68.9762L83.365 63.3773ZM37.6333 20.2232L37.6332 20.2232L29.4588 36.0791C29.4588 36.0791 29.4588 36.0792 29.4587 36.0792C29.2473 36.4899 29.3614 36.9937 29.7301 37.2723L29.7302 37.2725L39.7945 44.8909L39.9705 45.0241L39.8601 45.2153L36.1472 51.6464C35.9744 51.9457 35.978 52.3145 36.1543 52.6091L40.5583 59.9526L40.5776 59.9848L40.5866 60.0211C41.7142 64.5768 38.9797 69.2328 34.4273 70.4526L28.5672 72.0228C24.6805 73.0643 21.7676 76.1571 20.9618 80.0981L20.9618 80.0982L19.4618 87.43L19.4617 87.4304C19.4323 87.5732 19.4369 87.7236 19.475 87.8659L19.7209 88.7835L21.5561 88.2918L21.3836 87.6479L21.3683 87.5909L21.3802 87.5331L22.8241 80.4787C22.8241 80.4787 22.8241 80.4786 22.8241 80.4786C23.4834 77.2486 25.8737 74.7116 29.0589 73.8582L34.919 72.288C37.6605 71.5534 39.8552 69.7935 41.2157 67.5325L41.329 67.3443L41.5302 67.4325L47.217 69.924L47.2461 69.9368L47.2711 69.9564L49.8681 71.9947L49.9897 72.0901L49.9587 72.2415L48.4395 79.6656L48.4394 79.6665C48.4096 79.8091 48.4141 79.9592 48.4523 80.1016L48.6981 81.0192L50.5334 80.5275L50.3608 79.8836L50.3456 79.8266L50.3574 79.7687L51.5862 73.7658L51.6583 73.4137L51.9633 73.6037C52.1948 73.7479 52.4571 73.8003 52.6991 73.7355C52.9412 73.6706 53.1421 73.4941 53.2705 73.2534L53.4397 72.9364L53.6781 73.2052L57.7438 77.7895L57.783 77.8337L57.7982 77.8907L57.9708 78.5346L59.806 78.0429L59.5601 77.1252C59.522 76.9829 59.4507 76.8502 59.3539 76.7408L54.3265 71.0712L54.224 70.9556L54.2815 70.8122L55.5115 67.7483L55.5233 67.7189L55.5421 67.6933L59.2213 62.6922L59.3515 62.5151L59.5438 62.6216C61.8514 63.8996 64.632 64.3264 67.3735 63.5918L73.2336 62.0216C76.4188 61.1681 79.757 62.1704 81.9443 64.6374L86.7211 70.025L86.7603 70.0692L86.7755 70.1262L86.9481 70.7701L88.7833 70.2783L88.5374 69.3607C88.4993 69.2184 88.4281 69.0859 88.3315 68.9765L37.6333 20.2232ZM37.6333 20.2232C37.8746 19.7548 38.5465 19.5744 38.9912 19.8593L37.6333 20.2232ZM58.0836 61.0302L57.6612 61.6043L54.1712 66.3485L54.1192 66.4191L54.0345 66.4418L47.8949 68.0869L47.8102 68.1096L47.7299 68.0744L42.3348 65.711L42.1261 65.6196L42.1978 65.4033C42.8248 63.5143 42.9311 61.4291 42.3787 59.3675C42.3558 59.282 42.3208 59.1994 42.2766 59.1253C42.2765 59.1253 42.2765 59.1252 42.2765 59.1252L38.1467 52.2379L38.071 52.1117L38.1446 51.9843L41.7851 45.6779L41.8368 45.5882L41.9369 45.5614L47.9316 43.9551L48.0316 43.9283L48.1213 43.9801L54.4278 47.6212L54.5552 47.6948L54.5527 47.8419L54.4199 55.8714L58.0836 61.0302ZM58.0836 61.0302L57.5263 61.1795M58.0836 61.0302L57.5263 61.1795M57.5263 61.1795C56.0889 59.8677 54.9925 58.1476 54.4526 56.1324C54.4297 56.0469 54.4186 55.9579 54.4199 55.8717L57.5263 61.1795ZM31.6092 36.0518L31.5129 36.2387L31.6805 36.3656L41.3168 43.6601L41.4143 43.7339L41.5324 43.7022L47.3532 42.1426L47.4713 42.1109L47.5188 41.9983L52.2165 30.8631L52.2982 30.6693L52.1213 30.5556L40.5743 23.1346L40.0303 22.785L40.1977 23.4096L42.2469 31.0577L42.2925 31.2279L42.4682 31.2421C43.8429 31.3536 45.0642 32.299 45.4398 33.7007C45.9177 35.4846 44.8548 37.3256 43.071 37.8036C41.2872 38.2815 39.4462 37.2186 38.9682 35.4347C38.5924 34.0325 39.1775 32.6032 40.3123 31.8199L40.4573 31.7197L40.4117 31.5494L38.3624 23.9014L38.1951 23.2767L37.8987 23.8515L31.6092 36.0518ZM51.7811 71.0829L52.0433 71.2886L52.1675 70.9793L52.9125 69.1236L53.0989 68.6596L52.6158 68.789L50.2977 69.4102L49.8146 69.5396L50.208 69.8483L51.7811 71.0829ZM43.6044 34.192C43.3973 33.419 42.6015 32.9596 41.8285 33.1667C41.0556 33.3738 40.5962 34.1696 40.8033 34.9425C41.0104 35.7155 41.8062 36.175 42.5791 35.9678C43.3521 35.7607 43.8115 34.9649 43.6044 34.192Z" fill="#EEEEEE" stroke="#161616" stroke-width="0.5"/>
<path d="M64.3998 5.27484L64.57 5.22922L64.5843 5.05356C64.6957 3.67889 65.6411 2.45757 67.0428 2.08199C68.8266 1.60401 70.6676 2.66694 71.1456 4.45081C71.6235 6.23439 70.5611 8.0751 68.7778 8.55345C67.3765 8.9285 65.9475 8.34351 65.1627 7.20912L65.0625 7.06428L64.8924 7.10986L48.8294 11.4139L48.8643 11.9036C60.873 13.3467 71.5852 21.3162 76.0878 32.9701L76.1687 33.1797L76.3857 33.1215L77.7476 32.7566C78.2553 32.6206 78.775 32.9206 78.9111 33.4284L80.1534 38.0648C80.2895 38.5726 79.9894 39.0923 79.4817 39.2283L74.8453 40.4706C74.3375 40.6067 73.8179 40.3066 73.6818 39.7989L72.4395 35.1624C72.3034 34.6547 72.6035 34.135 73.1112 33.9989L74.0292 33.753L74.3003 33.6803L74.1969 33.4194C68.8654 19.9638 54.7493 11.8138 40.4312 13.9244L40.1535 13.9653L40.2261 14.2364L40.4721 15.1544C40.6082 15.6621 40.3081 16.1818 39.8004 16.3179L35.164 17.5602C34.6563 17.6962 34.1366 17.3962 34.0005 16.8884L33.7546 15.9705L33.6819 15.6994L33.421 15.8027C19.9656 21.1342 11.8159 35.2504 13.9265 49.5688L13.9674 49.8464L14.2386 49.7738L15.1565 49.5278C15.6643 49.3918 16.1839 49.6918 16.32 50.1996L17.5623 54.836C17.6984 55.3438 17.3983 55.8635 16.8906 55.9995L12.2542 57.2419C11.7465 57.3779 11.2268 57.0779 11.0907 56.5701L9.84841 51.9337C9.71235 51.4259 10.0124 50.9062 10.5201 50.7701L11.881 50.4055L12.0979 50.3474L12.0633 50.1255C10.1365 37.7813 15.4274 25.5244 25.1063 18.2696L24.8916 17.8281L8.82859 22.1321L8.65835 22.1777L8.64411 22.3534C8.53265 23.7281 7.58732 24.9494 6.18562 25.325C4.40178 25.8029 2.56076 24.74 2.08278 22.9561C1.60479 21.1723 2.66769 19.3312 4.45153 18.8533C5.85323 18.4777 7.28258 19.0627 8.06643 20.1975L8.1666 20.3425L8.33683 20.2969L32.891 13.7176L33.1325 13.6529L33.0678 13.4114L32.7572 12.2523C32.6212 11.7445 32.9212 11.2248 33.429 11.0888L38.0653 9.84647C38.5731 9.71042 39.0928 10.0105 39.2288 10.5182L39.5394 11.6773L39.6041 11.9188L39.8456 11.8541L64.3998 5.27484ZM15.239 54.4751L15.4804 54.4104L15.4157 54.1689L14.7946 51.8507L14.7299 51.6092L14.4884 51.6739L12.1702 52.295L11.9287 52.3597L11.9934 52.6012L12.6146 54.9195L12.6793 55.1609L12.9208 55.0962L15.239 54.4751ZM38.1487 14.7935L38.3902 14.7288L38.3255 14.4873L37.7043 12.1691L37.6396 11.9276L37.3981 11.9923L35.0799 12.6134L34.8385 12.6781L34.9032 12.9196L35.5243 15.2378L35.589 15.4793L35.8305 15.4146L38.1487 14.7935ZM74.7612 35.5238L74.5197 35.5885L74.5844 35.83L75.2056 38.1482L75.2703 38.3897L75.5118 38.325L77.8299 37.7039L78.0714 37.6392L78.0067 37.3977L77.3856 35.0795L77.3208 34.838L77.0794 34.9027L74.7612 35.5238ZM69.3104 4.94256C69.1033 4.16962 68.3075 3.71014 67.5345 3.91725C66.7616 4.12436 66.3021 4.92019 66.5093 5.69313C66.7164 6.46606 67.5122 6.92555 68.2851 6.71844C69.058 6.51133 69.5175 5.7155 69.3104 4.94256ZM3.91826 22.4643C4.12537 23.2373 4.92119 23.6967 5.69412 23.4896C6.46706 23.2825 6.92652 22.4867 6.71941 21.7138C6.5123 20.9408 5.71649 20.4813 4.94355 20.6885C4.17061 20.8956 3.71115 21.6914 3.91826 22.4643Z" fill="#EEEEEE" stroke="#161616" stroke-width="0.5"/>
<path d="M45.079 48.9635L46.9143 48.4717L47.406 50.307L45.5708 50.7987L45.079 48.9635Z" fill="#EEEEEE" stroke="#161616" stroke-width="0.5"/>
<path d="M46.3222 53.6002L48.1574 53.1084L48.6492 54.9437L46.8139 55.4354L46.3222 53.6002Z" fill="#EEEEEE" stroke="#161616" stroke-width="0.5"/>
<path d="M47.5644 58.2369L49.3996 57.7451L49.8914 59.5804L48.0561 60.0722L47.5644 58.2369Z" fill="#EEEEEE" stroke="#161616" stroke-width="0.5"/>
</svg>
