<svg width="91" height="71" viewBox="0 0 91 71" fill="none" xmlns="http://www.w3.org/2000/svg">
<rect x="34.5" y="-0.000244141" width="22" height="22" fill="#EEEEEE"/>
<rect x="39" y="40.4998" width="13" height="13" stroke="#EEEEEE"/>
<rect x="74" y="40.4998" width="13" height="13" stroke="#EEEEEE"/>
<rect x="4" y="40.4998" width="13" height="13" stroke="#EEEEEE"/>
<line x1="46" y1="24.9998" x2="46" y2="37.9998" stroke="#EEEEEE"/>
<line x1="11" y1="31.9998" x2="11" y2="37.9998" stroke="#EEEEEE"/>
<line x1="81" y1="31.9998" x2="81" y2="37.9998" stroke="#EEEEEE"/>
<line x1="10.5" y1="31.4998" x2="81.5" y2="31.4998" stroke="#EEEEEE"/>
<rect x="12" y="63.4998" width="7" height="7" rx="3.5" stroke="#EEEEEE"/>
<rect x="1" y="63.4998" width="7" height="7" rx="3.5" stroke="#EEEEEE"/>
<line x1="11" y1="55.9998" x2="11" y2="58.9998" stroke="#EEEEEE"/>
<line x1="16" y1="57.9998" x2="16" y2="61.9998" stroke="#EEEEEE"/>
<line x1="5" y1="57.9998" x2="5" y2="61.9998" stroke="#EEEEEE"/>
<line x1="4.5" y1="58.4998" x2="16.5" y2="58.4998" stroke="#EEEEEE"/>
<rect x="47" y="63.4998" width="7" height="7" rx="3.5" stroke="#EEEEEE"/>
<rect x="36" y="63.4998" width="7" height="7" rx="3.5" stroke="#EEEEEE"/>
<line x1="46" y1="55.9998" x2="46" y2="58.9998" stroke="#EEEEEE"/>
<line x1="51" y1="57.9998" x2="51" y2="61.9998" stroke="#EEEEEE"/>
<line x1="40" y1="57.9998" x2="40" y2="61.9998" stroke="#EEEEEE"/>
<line x1="39.5" y1="58.4998" x2="51.5" y2="58.4998" stroke="#EEEEEE"/>
<rect x="83" y="63.4998" width="7" height="7" rx="3.5" stroke="#EEEEEE"/>
<rect x="72" y="63.4998" width="7" height="7" rx="3.5" stroke="#EEEEEE"/>
<line x1="82" y1="55.9998" x2="82" y2="58.9998" stroke="#EEEEEE"/>
<line x1="87" y1="57.9998" x2="87" y2="61.9998" stroke="#EEEEEE"/>
<line x1="76" y1="57.9998" x2="76" y2="61.9998" stroke="#EEEEEE"/>
<line x1="75.5" y1="58.4998" x2="87.5" y2="58.4998" stroke="#EEEEEE"/>
</svg>
