<svg width="41" height="29" viewBox="0 0 41 29" fill="none" xmlns="http://www.w3.org/2000/svg">
<path d="M40.1553 4.53781C39.6828 2.76339 38.2979 1.36463 36.5417 0.886832C33.3333 0 20.4995 0 20.4995 0C20.4995 0 7.66624 0 4.45786 0.853209C2.73542 1.3305 1.31679 2.76364 0.844325 4.53781C0 7.77874 0 14.5 0 14.5C0 14.5 0 21.2551 0.844325 24.4622C1.31729 26.2364 2.70164 27.6351 4.45811 28.1129C7.70003 29 20.5 29 20.5 29C20.5 29 33.3333 29 36.5417 28.1468C38.2982 27.6692 39.6828 26.2705 40.1558 24.4963C40.9998 21.2551 40.9998 14.5341 40.9998 14.5341C40.9998 14.5341 41.0336 7.77874 40.1553 4.53781ZM16.4135 20.7093V8.29066L27.0855 14.5L16.4135 20.7093Z" fill="#E4E4E4"/>
</svg>
